<?xml version="1.0" encoding="UTF-8" standalone="no"?>
<!-- Created with Inkscape (http://www.inkscape.org/) -->

<svg
   width="99.225311mm"
   height="57.566277mm"
   viewBox="0 0 99.225311 57.566277"
   version="1.1"
   id="svg1"
   inkscape:version="1.3.2 (091e20e, 2023-11-25, custom)"
   sodipodi:docname="example-figure17-1.svg"
   xmlns:inkscape="http://www.inkscape.org/namespaces/inkscape"
   xmlns:sodipodi="http://sodipodi.sourceforge.net/DTD/sodipodi-0.dtd"
   xmlns="http://www.w3.org/2000/svg"
   xmlns:svg="http://www.w3.org/2000/svg">
  <sodipodi:namedview
     id="namedview1"
     pagecolor="#ffffff"
     bordercolor="#666666"
     borderopacity="1.0"
     inkscape:showpageshadow="2"
     inkscape:pageopacity="0.0"
     inkscape:pagecheckerboard="0"
     inkscape:deskcolor="#d1d1d1"
     inkscape:document-units="mm"
     inkscape:zoom="0.74920735"
     inkscape:cx="186.86416"
     inkscape:cy="108.78163"
     inkscape:window-width="1920"
     inkscape:window-height="1017"
     inkscape:window-x="1072"
     inkscape:window-y="-8"
     inkscape:window-maximized="1"
     inkscape:current-layer="layer1" />
  <defs
     id="defs1" />
  <g
     inkscape:label="Layer 1"
     inkscape:groupmode="layer"
     id="layer1"
     transform="translate(-55.296288,-119.59167)">
    <g
       id="g31240"
       transform="matrix(0.26458333,0,0,0.26458333,-95514.059,-36.669483)">
      <path
         id="path31240"
         d="m 61.37,285.35 h 49.61 V 221.57 H 61.37 Z"
         style="fill:#bdbcbc;fill-opacity:1;fill-rule:evenodd;stroke:#231f20;stroke-width:0.51;stroke-linecap:butt;stroke-linejoin:miter;stroke-miterlimit:3.86;stroke-dasharray:none;stroke-opacity:1"
         transform="matrix(1.3333333,0,0,-1.3333333,361125.53,1056)" />
      <path
         id="path31241"
         d="M 61.37,348.8 H 252.29 V 186.13 H 61.37 Z"
         style="fill:none;stroke:#231f20;stroke-width:0.51;stroke-linecap:butt;stroke-linejoin:miter;stroke-miterlimit:3.86;stroke-dasharray:none;stroke-opacity:1"
         transform="matrix(1.3333333,0,0,-1.3333333,361125.53,1056)" />
      <text
         id="text31241"
         xml:space="preserve"
         transform="matrix(1.3333333,0,0,1.3333333,361216.81,703.88)"><tspan
           style="font-variant:normal;font-weight:normal;font-stretch:normal;font-size:10px;font-family:'Times New Roman';writing-mode:lr-tb;fill:#231f20;fill-opacity:1;fill-rule:nonzero;stroke:none"
           x="0 7.2199998 12.22 15 22.219999 27.219999 30.549999 34.990002"
           y="0"
           sodipodi:role="line"
           id="tspan31241">ObjA_ref</tspan></text>
      <path
         id="path31242"
         d="M 0,0 V 7.08 C -3.908,7.08 -7.08,3.908 -7.08,0 -7.08,-3.908 -3.908,-7.08 0,-7.08 3.908,-7.08 7.08,-3.908 7.08,0 7.08,3.908 3.908,7.08 0,7.08"
         style="fill:#231f20;fill-opacity:1;fill-rule:nonzero;stroke:none"
         transform="matrix(1.3333333,0,0,-1.3333333,361235.7,732.22667)" />
      <path
         id="path31243"
         d="m 0,0 c -3.914,0 -7.09,-3.176 -7.09,-7.09 0,-3.914 3.176,-7.09 7.09,-7.09 3.914,0 7.09,3.176 7.09,7.09 C 7.09,-3.176 3.914,0 0,0 Z"
         style="fill:none;stroke:#231f20;stroke-width:0.51;stroke-linecap:butt;stroke-linejoin:miter;stroke-miterlimit:3.86;stroke-dasharray:none;stroke-opacity:1"
         transform="matrix(1.3333333,0,0,-1.3333333,361235.71,722.76667)" />
      <path
         id="path31244"
         d="M 0,0 3.4,8.97 -4.24,3.16 -2.12,1.58 Z"
         style="fill:none;stroke:#231f20;stroke-width:0.99;stroke-linecap:butt;stroke-linejoin:miter;stroke-miterlimit:3.86;stroke-dasharray:none;stroke-opacity:1"
         transform="matrix(1.3333333,0,0,-1.3333333,361299.93,664.82667)" />
      <path
         id="path31245"
         d="M 0,0 3.4,8.97 -4.24,3.16 -2.12,1.58"
         style="fill:#231f20;fill-opacity:1;fill-rule:evenodd;stroke:none"
         transform="matrix(1.3333333,0,0,-1.3333333,361299.93,664.82667)" />
      <path
         id="path31246"
         d="M 0,0 -38.66,-51.73"
         style="fill:#231f20;fill-opacity:1;fill-rule:evenodd;stroke:#231f20;stroke-width:0.51;stroke-linecap:square;stroke-linejoin:miter;stroke-miterlimit:3.86;stroke-dasharray:none;stroke-opacity:1"
         transform="matrix(1.3333333,0,0,-1.3333333,361296.7,663.25333)" />
      <path
         id="path31247"
         d="M 0,0 V 11.58 C -4.968,11.58 -9,6.392 -9,0 -9,-6.392 -4.968,-11.58 0,-11.58 4.968,-11.58 9,-6.392 9,0 9,6.392 4.968,11.58 0,11.58"
         style="fill:#231f20;fill-opacity:1;fill-rule:nonzero;stroke:none"
         transform="matrix(1.3333333,0,0,-1.3333333,361365.91,762.38667)" />
      <path
         id="path31248"
         d="m 0,0 c -4.968,0 -9,-5.192 -9,-11.59 0,-6.398 4.032,-11.59 9,-11.59 4.968,0 9,5.192 9,11.59 C 9,-5.192 4.968,0 0,0 Z"
         style="fill:none;stroke:#231f20;stroke-width:0.51;stroke-linecap:butt;stroke-linejoin:miter;stroke-miterlimit:3.86;stroke-dasharray:none;stroke-opacity:1"
         transform="matrix(1.3333333,0,0,-1.3333333,361365.93,746.92667)" />
      <text
         id="text31248"
         xml:space="preserve"
         transform="matrix(1.3333333,0,0,1.3333333,361377.91,755.76)"><tspan
           style="font-variant:normal;font-weight:normal;font-stretch:normal;font-size:10px;font-family:'Times New Roman';writing-mode:lr-tb;fill:#231f20;fill-opacity:1;fill-rule:nonzero;stroke:none"
           x="0 3.3299999 8.3299999 13.33 16.110001 20 22.780001 27.780001 30.559999 35 37.5 44.169998 48.610001 53.610001 56.389999 61.389999 68.610001 73.050003 78.050003 83.050003 85.830002 90.269997"
           y="0"
           sodipodi:role="line"
           id="tspan31248">Invisible ReplyHandler</tspan></text>
      <path
         id="path31249"
         d="m 158.46,267.8 h 30.83 v -60.87 h -30.83 z m -21.86,39.92 c 0,7.826 6.344,14.17 14.17,14.17 h 14.18 c 7.826,0 14.17,-6.344 14.17,-14.17 0,-7.826 -6.344,-14.17 -14.17,-14.17 h -14.18 c -7.826,0 -14.17,6.344 -14.17,14.17 z"
         style="fill:none;stroke:#231f20;stroke-width:0.51;stroke-linecap:butt;stroke-linejoin:miter;stroke-miterlimit:3.86;stroke-dasharray:none;stroke-opacity:1"
         transform="matrix(1.3333333,0,0,-1.3333333,361125.53,1056)" />
      <text
         id="text31249"
         xml:space="preserve"
         transform="matrix(1.3333333,0,0,1.3333333,361327.5,652.18667)"><tspan
           style="font-variant:normal;font-weight:normal;font-stretch:normal;font-size:10px;font-family:'Times New Roman';writing-mode:lr-tb;fill:#231f20;fill-opacity:1;fill-rule:nonzero;stroke:none"
           x="0 7.2199998 13.89"
           y="0"
           sodipodi:role="line"
           id="tspan31249">ORB</tspan></text>
      <path
         id="path31250"
         d="M 0,0 4.89,-8.25 5.11,1.35 2.55,0.67 Z"
         style="fill:none;stroke:#231f20;stroke-width:0.99;stroke-linecap:butt;stroke-linejoin:miter;stroke-miterlimit:3.86;stroke-dasharray:none;stroke-opacity:1"
         transform="matrix(1.3333333,0,0,-1.3333333,361358.77,685.6)" />
      <path
         id="path31251"
         d="M 0,0 4.89,-8.25 5.11,1.35 2.55,0.67"
         style="fill:#231f20;fill-opacity:1;fill-rule:evenodd;stroke:none"
         transform="matrix(1.3333333,0,0,-1.3333333,361358.77,685.6)" />
      <path
         id="path31252"
         d="M 0,0 -4.16,15.84"
         style="fill:none;stroke:#231f20;stroke-width:0.51;stroke-linecap:square;stroke-linejoin:miter;stroke-miterlimit:3.86;stroke-dasharray:none;stroke-opacity:1"
         transform="matrix(1.3333333,0,0,-1.3333333,361362.01,684.05333)" />
      <path
         id="path31253"
         d="m 0,0 -3.72,-8.85 7.84,5.53 -2.06,1.66 z"
         style="fill:none;stroke:#231f20;stroke-width:0.99;stroke-linecap:butt;stroke-linejoin:miter;stroke-miterlimit:3.86;stroke-dasharray:none;stroke-opacity:1"
         transform="matrix(1.3333333,0,0,-1.3333333,361261.07,728)" />
      <path
         id="path31254"
         d="m 0,0 -3.72,-8.85 7.84,5.53 -2.06,1.66"
         style="fill:#231f20;fill-opacity:1;fill-rule:evenodd;stroke:none"
         transform="matrix(1.3333333,0,0,-1.3333333,361261.07,728)" />
      <path
         id="path31255"
         d="M 0,0 40.26,50.07"
         style="fill:none;stroke:#231f20;stroke-width:0.51;stroke-linecap:square;stroke-linejoin:miter;stroke-miterlimit:3.86;stroke-dasharray:none;stroke-opacity:1"
         transform="matrix(1.3333333,0,0,-1.3333333,361264.23,729.69333)" />
      <path
         id="path31256"
         d="M 0,0 9.23,2.64 0,5.28 V 2.64 Z"
         style="fill:none;stroke:#231f20;stroke-width:0.99;stroke-linecap:butt;stroke-linejoin:miter;stroke-miterlimit:3.86;stroke-dasharray:none;stroke-opacity:1"
         transform="matrix(1.3333333,0,0,-1.3333333,361500.61,646.73333)" />
      <path
         id="path31257"
         d="M 0,0 9.23,2.64 0,5.28 V 2.64"
         style="fill:#231f20;fill-opacity:1;fill-rule:evenodd;stroke:none"
         transform="matrix(1.3333333,0,0,-1.3333333,361500.61,646.73333)" />
      <path
         id="path31258"
         d="M 0,0 H -101.85"
         style="fill:none;stroke:#231f20;stroke-width:0.51;stroke-linecap:square;stroke-linejoin:miter;stroke-miterlimit:3.86;stroke-dasharray:none;stroke-opacity:1"
         transform="matrix(1.3333333,0,0,-1.3333333,361499.94,643.21333)" />
      <text
         id="text31258"
         xml:space="preserve"
         transform="matrix(1.3333333,0,0,1.3333333,361365.91,672.05333)"><tspan
           style="font-variant:normal;font-weight:normal;font-stretch:normal;font-size:10px;font-family:'Times New Roman';writing-mode:lr-tb;fill:#231f20;fill-opacity:1;fill-rule:nonzero;stroke:none"
           x="0"
           y="0"
           id="tspan31258">2</tspan><tspan
           style="font-variant:normal;font-weight:normal;font-stretch:normal;font-size:10px;font-family:'Times New Roman';writing-mode:lr-tb;fill:#231f20;fill-opacity:1;fill-rule:nonzero;stroke:none"
           x="-45"
           y="11.06"
           id="tspan31259">3</tspan><tspan
           style="font-variant:normal;font-weight:normal;font-stretch:normal;font-size:10px;font-family:'Times New Roman';writing-mode:lr-tb;fill:#231f20;fill-opacity:1;fill-rule:nonzero;stroke:none"
           x="13 66.669998 73.889999 78.889999 81.669998 88.889999 93.889999 97.220001 101.66 104.99 107.49 109.99 112.77 117.77 120.27 125.27 129.71001 132.49001 139.71001 144.71001 148.03999"
           y="-33.93"
           sodipodi:role="line"
           id="tspan31260">4ObjA_ref, to network</tspan></text>
      <path
         id="path31260"
         d="M 0,0 9.07,3.13 -0.28,5.28 -0.14,2.64 Z"
         style="fill:none;stroke:#231f20;stroke-width:0.99;stroke-linecap:butt;stroke-linejoin:miter;stroke-miterlimit:3.86;stroke-dasharray:none;stroke-opacity:1"
         transform="matrix(1.3333333,0,0,-1.3333333,361327.41,751.24)" />
      <path
         id="path31261"
         d="M 0,0 9.07,3.13 -0.28,5.28 -0.14,2.64"
         style="fill:#231f20;fill-opacity:1;fill-rule:evenodd;stroke:none"
         transform="matrix(1.3333333,0,0,-1.3333333,361327.41,751.24)" />
      <path
         id="path31262"
         d="M 0,0 -46.88,-2.52"
         style="fill:none;stroke:#231f20;stroke-width:0.51;stroke-linecap:square;stroke-linejoin:miter;stroke-miterlimit:3.86;stroke-dasharray:none;stroke-opacity:1"
         transform="matrix(1.3333333,0,0,-1.3333333,361326.55,747.76)" />
      <path
         id="path31263"
         d="M 0,0 -9.22,-2.65 0,-5.29 v 2.64 z"
         style="fill:none;stroke:#231f20;stroke-width:0.99;stroke-linecap:butt;stroke-linejoin:miter;stroke-miterlimit:3.86;stroke-dasharray:none;stroke-opacity:1"
         transform="matrix(1.3333333,0,0,-1.3333333,361392.62,769.82667)" />
      <path
         id="path31264"
         d="M 0,0 -9.22,-2.65 0,-5.29 v 2.64"
         style="fill:#231f20;fill-opacity:1;fill-rule:evenodd;stroke:none"
         transform="matrix(1.3333333,0,0,-1.3333333,361392.62,769.82667)" />
      <path
         id="path31265"
         d="M 0,0 H 94.76"
         style="fill:none;stroke:#231f20;stroke-width:0.51;stroke-linecap:square;stroke-linejoin:miter;stroke-miterlimit:3.86;stroke-dasharray:none;stroke-opacity:1"
         transform="matrix(1.3333333,0,0,-1.3333333,361393.29,773.36)" />
      <text
         id="text31265"
         xml:space="preserve"
         transform="matrix(1.3333333,0,0,1.3333333,361474.95,792.05333)"><tspan
           style="font-variant:normal;font-weight:normal;font-stretch:normal;font-size:10px;font-family:'Times New Roman';writing-mode:lr-tb;fill:#231f20;fill-opacity:1;fill-rule:nonzero;stroke:none"
           x="0 3.3299999 7.77 12.77 15.55 20.549999 23.049999 25.549999 28.879999 32.209999 37.209999 44.990002 47.490002 52.490002 56.93 59.709999 66.93 71.93 75.260002"
           y="0"
           sodipodi:role="line"
           id="tspan31265">reply, from network</tspan><tspan
           style="font-variant:normal;font-weight:normal;font-stretch:normal;font-size:10px;font-family:'Times New Roman';writing-mode:lr-tb;fill:#231f20;fill-opacity:1;fill-rule:nonzero;stroke:none"
           x="-27.780001"
           y="-6.9400001"
           id="tspan31266">5</tspan><tspan
           style="font-variant:normal;font-weight:normal;font-stretch:normal;font-size:10px;font-family:'Times New Roman';writing-mode:lr-tb;fill:#231f20;fill-opacity:1;fill-rule:nonzero;stroke:none"
           x="-135.78"
           y="-15.94"
           id="tspan31267">6</tspan></text>
      <path
         id="path31267"
         d="M 0,0 V 7.08 C -3.908,7.08 -7.08,3.908 -7.08,0 -7.08,-3.908 -3.908,-7.08 0,-7.08 3.908,-7.08 7.08,-3.908 7.08,0 7.08,3.908 3.908,7.08 0,7.08"
         style="fill:#231f20;fill-opacity:1;fill-rule:nonzero;stroke:none"
         transform="matrix(1.3333333,0,0,-1.3333333,361348.53,722.94667)" />
      <path
         id="path31268"
         d="m 0,0 c -3.914,0 -7.09,-3.176 -7.09,-7.09 0,-3.914 3.176,-7.09 7.09,-7.09 3.914,0 7.09,3.176 7.09,7.09 C 7.09,-3.176 3.914,0 0,0 Z"
         style="fill:none;stroke:#231f20;stroke-width:0.51;stroke-linecap:butt;stroke-linejoin:miter;stroke-miterlimit:3.86;stroke-dasharray:none;stroke-opacity:1"
         transform="matrix(1.3333333,0,0,-1.3333333,361348.53,713.48667)" />
      <text
         id="text31268"
         xml:space="preserve"
         transform="matrix(1.3333333,0,0,1.3333333,361363.07,725.49333)"><tspan
           style="font-variant:normal;font-weight:normal;font-stretch:normal;font-size:10px;font-family:'Times New Roman';writing-mode:lr-tb;fill:#231f20;fill-opacity:1;fill-rule:nonzero;stroke:none"
           x="0 5.5599999 10 13.33 17.219999 20 23.889999 26.67 31.110001 36.110001 38.889999 45.560001 50 55 60 64.440002 68.330002"
           y="0"
           sodipodi:role="line"
           id="tspan31268">PersistentRequest</tspan><tspan
           style="font-variant:normal;font-weight:normal;font-stretch:normal;font-size:10px;font-family:'Times New Roman';writing-mode:lr-tb;fill:#231f20;fill-opacity:1;fill-rule:nonzero;stroke:none"
           x="-51.869999 -45.200001 -42.419998 -39.639999 -35.200001 -30.200001 -27.42 -24.92 -22.139999 -17.700001 -12.7 -9.9200001 -4.9200001"
           y="-91.919998"
           sodipodi:role="line"
           id="tspan31269">Client laptop</tspan><tspan
           style="font-variant:normal;font-weight:normal;font-stretch:normal;font-size:10px;font-family:'Times New Roman';writing-mode:lr-tb;fill:#231f20;fill-opacity:1;fill-rule:nonzero;stroke:none"
           x="-56.869999"
           y="-59.299999"
           id="tspan31270">1</tspan><tspan
           style="font-variant:normal;font-weight:normal;font-stretch:normal;font-size:10px;font-family:'Times New Roman';writing-mode:lr-tb;fill:#231f20;fill-opacity:1;fill-rule:nonzero;stroke:none"
           x="-42.869999 -36.759998 -31.76 -26.76 -22.32 -18.99 -13.43 -8.4300003 -3.99 0.44999999 3.23 6.5599999 9.3400002 13.78 16.280001 21.84 26.84 29.620001 32.400002 36.84"
           y="49.700001"
           sodipodi:role="line"
           id="tspan31271">Type-Specific Poller</tspan></text>
    </g>
  </g>
</svg>
