<?xml version="1.0" encoding="UTF-8" standalone="no"?>
<!-- Created with Inkscape (http://www.inkscape.org/) -->

<svg
   width="155.575mm"
   height="76.556297mm"
   viewBox="0 0 155.575 76.556297"
   version="1.1"
   id="svg1"
   inkscape:version="1.3.2 (091e20e, 2023-11-25, custom)"
   sodipodi:docname="figure6-9.svg"
   xmlns:inkscape="http://www.inkscape.org/namespaces/inkscape"
   xmlns:sodipodi="http://sodipodi.sourceforge.net/DTD/sodipodi-0.dtd"
   xmlns="http://www.w3.org/2000/svg"
   xmlns:svg="http://www.w3.org/2000/svg">
  <sodipodi:namedview
     id="namedview1"
     pagecolor="#ffffff"
     bordercolor="#666666"
     borderopacity="1.0"
     inkscape:showpageshadow="2"
     inkscape:pageopacity="0.0"
     inkscape:pagecheckerboard="0"
     inkscape:deskcolor="#d1d1d1"
     inkscape:document-units="mm"
     inkscape:zoom="0.74920735"
     inkscape:cx="294.97842"
     inkscape:cy="144.81972"
     inkscape:window-width="1920"
     inkscape:window-height="1017"
     inkscape:window-x="1072"
     inkscape:window-y="-8"
     inkscape:window-maximized="1"
     inkscape:current-layer="layer1" />
  <defs
     id="defs1" />
  <g
     inkscape:label="Layer 1"
     inkscape:groupmode="layer"
     id="layer1"
     transform="translate(-26.987413,-110.33125)">
    <path
       id="path1880"
       d="M 26.987413,186.88755 H 182.56241 v -76.5563 H 26.987413 Z"
       style="fill:#ffffff;fill-opacity:1;fill-rule:nonzero;stroke:none;stroke-width:0.352777" />
    <path
       id="path1881"
       d="m 30.814875,152.48466 h 78.115585 v 32.00048 H 30.814875 Z m 0,-11.79336 h 37.041666 v 10.07886 H 30.814875 Z"
       style="fill:none;stroke:#231f20;stroke-width:0.53975;stroke-linecap:butt;stroke-linejoin:miter;stroke-miterlimit:3.86;stroke-dasharray:none;stroke-opacity:1" />
    <path
       id="path1882"
       d="m 71.938268,140.6913 h 36.537102 v 10.07886 H 71.938268 Z"
       style="fill:#e9e9e9;fill-opacity:1;fill-rule:evenodd;stroke:#231f20;stroke-width:0.53975;stroke-linecap:butt;stroke-linejoin:miter;stroke-miterlimit:3.86;stroke-dasharray:none;stroke-opacity:1" />
    <path
       id="path1883"
       d="m 29.050898,132.27402 v -9.22161 c 0,-3.50696 2.842948,-6.35 6.35,-6.35 h 26.8605 c 3.507052,0 6.349999,2.84304 6.349999,6.35 v 9.22161 c 0,3.50697 -2.842947,6.35 -6.349999,6.35 h -26.8605 c -3.507052,0 -6.35,-2.84303 -6.35,-6.35 z"
       style="fill:#e9e9e9;fill-opacity:1;fill-rule:evenodd;stroke:#231f20;stroke-width:0.53975;stroke-linecap:butt;stroke-linejoin:miter;stroke-miterlimit:3.86;stroke-dasharray:none;stroke-opacity:1" />
    <path
       id="path1884"
       d="m 69.923731,132.27402 v -9.22161 c 0,-3.50696 2.842948,-6.35 6.35,-6.35 h 30.137889 c 3.50679,0 6.35,2.84304 6.35,6.35 v 9.22161 c 0,3.50697 -2.84321,6.35 -6.35,6.35 H 76.273731 c -3.507052,0 -6.35,-2.84303 -6.35,-6.35 z"
       style="fill:#e9e9e9;fill-opacity:1;fill-rule:evenodd;stroke:#231f20;stroke-width:0.53975;stroke-linecap:butt;stroke-linejoin:miter;stroke-miterlimit:3.86;stroke-dasharray:none;stroke-opacity:1" />
    <path
       id="path1885"
       d="m 138.66618,153.74408 h 40.56592 v 30.74106 h -40.56592 z"
       style="fill:#e9e9e9;fill-opacity:1;fill-rule:evenodd;stroke:#231f20;stroke-width:0.53975;stroke-linecap:butt;stroke-linejoin:miter;stroke-miterlimit:3.86;stroke-dasharray:none;stroke-opacity:1" />
    <path
       id="path1886"
       d="m 110.74735,168.13741 0.34264,1.00259 c 0.55139,-0.18838 0.8456,-0.79057 0.65616,-1.34408 -0.18917,-0.55351 -0.79031,-0.84949 -1.34143,-0.66111 -0.5514,0.18839 -0.84561,0.79058 -0.65617,1.34409 0.18918,0.55351 0.79004,0.84948 1.34144,0.6611"
       style="fill:#231f20;fill-opacity:1;fill-rule:nonzero;stroke:none;stroke-width:0.352777" />
    <path
       id="path1887"
       d="m 109.8229,165.97841 -3.07975,3.52777 4.59316,0.90312 -0.75856,-2.21545 z"
       style="fill:none;stroke:#231f20;stroke-width:0.34925;stroke-linecap:butt;stroke-linejoin:miter;stroke-miterlimit:3.86;stroke-dasharray:none;stroke-opacity:1" />
    <path
       id="path1888"
       d="m 109.8229,165.97841 -3.07975,3.52777 4.59316,0.90312 -0.75856,-2.21545"
       style="fill:#231f20;fill-opacity:1;fill-rule:evenodd;stroke:none;stroke-width:0.352777" />
    <path
       id="path1889"
       d="m 137.11043,167.85871 -0.34898,-0.99554 c -0.54875,0.19262 -0.8382,0.79481 -0.64558,1.34409 0.19261,0.54963 0.79454,0.83926 1.34355,0.64699 0.54875,-0.19261 0.8382,-0.7948 0.64558,-1.34408 -0.19261,-0.54963 -0.79454,-0.83926 -1.34355,-0.647"
       style="fill:#231f20;fill-opacity:1;fill-rule:nonzero;stroke:none;stroke-width:0.352777" />
    <path
       id="path1890"
       d="m 138.05235,170.01066 3.05144,-3.54895 -4.60005,-0.86783 0.77259,2.20839 z"
       style="fill:none;stroke:#231f20;stroke-width:0.34925;stroke-linecap:butt;stroke-linejoin:miter;stroke-miterlimit:3.86;stroke-dasharray:none;stroke-opacity:1" />
    <path
       id="path1891"
       d="m 138.05235,170.01066 3.05144,-3.54895 -4.60005,-0.86783 0.77259,2.20839"
       style="fill:#231f20;fill-opacity:1;fill-rule:evenodd;stroke:none;stroke-width:0.352777" />
    <path
       id="path1892"
       d="m 137.11043,167.85871 -15.07781,5.28814 4.28625,-10.32933 -15.57152,5.31989"
       style="fill:none;stroke:#231f20;stroke-width:2.12725;stroke-linecap:butt;stroke-linejoin:miter;stroke-miterlimit:3.86;stroke-dasharray:none;stroke-opacity:1" />
    <text
       id="text1892"
       xml:space="preserve"
       x="56.014088"
       y="167.35071"
       style="font-size:4.23333px;stroke-width:0.352777"><tspan
         style="font-variant:normal;font-weight:700;font-stretch:normal;font-size:5.99723px;font-family:Arial;writing-mode:lr-tb;fill:#231f20;fill-opacity:1;fill-rule:nonzero;stroke:none;stroke-width:0.352777"
         x="56.014088 60.679436 65.009926 69.339371 71.006454 75.336937 79.000801 81.334503"
         y="167.35071"
         sodipodi:role="line"
         id="tspan1892">ORB Core</tspan></text>
    <text
       id="text1893"
       xml:space="preserve"
       x="115.48126"
       y="180.45288"
       style="font-size:4.23333px;stroke-width:0.352777"><tspan
         style="font-variant:normal;font-weight:700;font-stretch:normal;font-size:3.88056px;font-family:Arial;writing-mode:lr-tb;fill:#231f20;fill-opacity:1;fill-rule:nonzero;stroke:none;stroke-width:0.352777"
         x="115.48126 118.5002 120.6582 121.95011 124.10812 127.12706 129.28506"
         y="180.45288"
         sodipodi:role="line"
         id="tspan1893">Gateway</tspan></text>
    <text
       id="text1894"
       xml:space="preserve"
       x="141.69258"
       y="163.57246"
       style="font-size:4.23333px;stroke-width:0.352777"><tspan
         style="font-variant:normal;font-weight:700;font-stretch:normal;font-size:4.23333px;font-family:Arial;writing-mode:lr-tb;fill:#231f20;fill-opacity:1;fill-rule:nonzero;stroke:none;stroke-width:0.352777"
         x="141.69258 144.98643 147.57336 148.74951 151.1039 153.45723 154.86697 156.04416 158.39751 160.75188 163.10522 164.51495 166.8683 170.63242 171.80856 174.16295"
         y="163.57246"
         sodipodi:role="line"
         id="tspan1894">Object system as</tspan><tspan
         style="font-variant:normal;font-weight:700;font-stretch:normal;font-size:4.23333px;font-family:Arial;writing-mode:lr-tb;fill:#231f20;fill-opacity:1;fill-rule:nonzero;stroke:none;stroke-width:0.352777"
         x="146.04994 148.40327 150.9902 153.57712 154.98686 157.57275 159.92712 161.57353 162.75073 166.04355 169.10072"
         y="168.18341"
         sodipodi:role="line"
         id="tspan1895">another ORB</tspan><tspan
         style="font-variant:normal;font-weight:700;font-stretch:normal;font-size:4.23333px;font-family:Arial;writing-mode:lr-tb;fill:#231f20;fill-opacity:1;fill-rule:nonzero;stroke:none;stroke-width:0.352777"
         x="139.58005 140.75723 143.34312 144.75285 147.10724 148.75365 151.34058 153.92645 156.28084 157.92725 160.28163 161.69136 162.86751 165.45444 168.04135 169.21751 171.5719 172.74805 175.10243 176.27858"
         y="172.79774"
         sodipodi:role="line"
         id="tspan1896">interoperating via a</tspan><tspan
         style="font-variant:normal;font-weight:700;font-stretch:normal;font-size:4.23333px;font-family:Arial;writing-mode:lr-tb;fill:#231f20;fill-opacity:1;fill-rule:nonzero;stroke:none;stroke-width:0.352777"
         x="150.74525 153.33218 155.68552 157.09526 159.44963 162.74246 165.09683"
         y="177.40869"
         sodipodi:role="line"
         id="tspan1897">gateway</tspan></text>
    <text
       id="text1897"
       xml:space="preserve"
       x="36.360508"
       y="145.42911"
       style="font-size:4.23333px;stroke-width:0.352777"><tspan
         style="font-variant:normal;font-weight:700;font-stretch:normal;font-size:3.88056px;font-family:Arial;writing-mode:lr-tb;fill:#231f20;fill-opacity:1;fill-rule:nonzero;stroke:none;stroke-width:0.352777"
         x="36.360508 38.948463 41.319378 42.829365 44.121277 46.279282 48.650196 49.729202 51.886177 52.965179 55.984116 58.35503 59.434036 61.592045 63.749016 65.041962"
         y="145.42911"
         sodipodi:role="line"
         id="tspan1898">Portable Object </tspan><tspan
         style="font-variant:normal;font-weight:700;font-stretch:normal;font-size:3.88056px;font-family:Arial;writing-mode:lr-tb;fill:#231f20;fill-opacity:1;fill-rule:nonzero;stroke:none;stroke-width:0.352777"
         x="41.000019 43.801914 46.172829 48.329803 50.700718 51.993664 54.150639"
         y="149.78929"
         sodipodi:role="line"
         id="tspan1899">Adapter</tspan><tspan
         style="font-variant:normal;font-weight:700;font-stretch:normal;font-size:3.88056px;font-family:Arial;writing-mode:lr-tb;fill:#231f20;fill-opacity:1;fill-rule:nonzero;stroke:none;stroke-width:0.352777"
         x="73.147926 75.736916 78.107834 80.264801 82.422813 83.501816 85.658791 86.737793 88.029709 90.401657 92.772568 94.281517 96.652435 99.023346 101.18136"
         y="145.42911"
         sodipodi:role="line"
         id="tspan1900">Special-purpose</tspan><tspan
         style="font-variant:normal;font-weight:700;font-stretch:normal;font-size:3.88056px;font-family:Arial;writing-mode:lr-tb;fill:#231f20;fill-opacity:1;fill-rule:nonzero;stroke:none;stroke-width:0.352777"
         x="79.300522 82.102417 84.473335 86.63134 89.002258 90.294167 92.452171"
         y="149.78929"
         sodipodi:role="line"
         id="tspan1901">Adapter</tspan><tspan
         style="font-variant:normal;font-weight:700;font-stretch:normal;font-size:3.88056px;font-family:Arial;writing-mode:lr-tb;fill:#231f20;fill-opacity:1;fill-rule:nonzero;stroke:none;stroke-width:0.352777"
         x="33.227882 36.246819 38.617737 39.696739 41.854748 44.011723 45.304665 46.383671 48.540642 50.69865 52.855625 54.148571 56.305546 59.755463 60.834465 62.992474"
         y="120.98859"
         sodipodi:role="line"
         id="tspan1902">Object system as</tspan><tspan
         style="font-variant:normal;font-weight:700;font-stretch:normal;font-size:3.88056px;font-family:Arial;writing-mode:lr-tb;fill:#231f20;fill-opacity:1;fill-rule:nonzero;stroke:none;stroke-width:0.352777"
         x="37.105682 39.262657 40.34166 42.929615 45.948555 48.75045 49.829453 52.200367 54.571281 55.650288 57.808296 59.965267"
         y="125.59946"
         sodipodi:role="line"
         id="tspan1903">a POA object</tspan><tspan
         style="font-variant:normal;font-weight:700;font-stretch:normal;font-size:3.88056px;font-family:Arial;writing-mode:lr-tb;fill:#231f20;fill-opacity:1;fill-rule:nonzero;stroke:none;stroke-width:0.352777"
         x="34.900131 35.979137 39.429054 41.799969 42.878975 45.03595 48.485867 50.643875 53.01479 54.306698 56.464706 57.756618 58.835621 61.206535"
         y="130.21034"
         sodipodi:role="line"
         id="tspan1904">implementation</tspan><tspan
         style="font-variant:normal;font-weight:700;font-stretch:normal;font-size:3.88056px;font-family:Arial;writing-mode:lr-tb;fill:#231f20;fill-opacity:1;fill-rule:nonzero;stroke:none;stroke-width:0.352777"
         x="75.240822 78.259758 80.630676 81.709679 83.866653 86.024658 87.316574 88.395576 90.553581 92.710556 94.868561 96.160477 98.318481 101.7684 102.84637 105.00438"
         y="121.99404"
         sodipodi:role="line"
         id="tspan1905">Object system as</tspan><tspan
         style="font-variant:normal;font-weight:700;font-stretch:normal;font-size:3.88056px;font-family:Arial;writing-mode:lr-tb;fill:#231f20;fill-opacity:1;fill-rule:nonzero;stroke:none;stroke-width:0.352777"
         x="74.115311 76.273315 78.644234 79.722198 80.801208 84.251122 86.62204 87.701042 89.859055 93.308968 95.465942 97.836861 99.129807 101.28677 102.57869 103.65769 106.02861"
         y="126.60841"
         sodipodi:role="line"
         id="tspan1906">an implementation</tspan><tspan
         style="font-variant:normal;font-weight:700;font-stretch:normal;font-size:3.88056px;font-family:Arial;writing-mode:lr-tb;fill:#231f20;fill-opacity:1;fill-rule:nonzero;stroke:none;stroke-width:0.352777"
         x="70.291252 73.310188 74.389198 75.681107 78.052017 79.131027 81.287994 82.367004 84.525009 86.895927 89.053932 91.210907 92.289909 94.447922 95.525887 96.818832 99.189751 101.56066 103.06961 105.44053 107.81248 109.96945"
         y="131.21928"
         sodipodi:role="line"
         id="tspan1907">with a special-purpose</tspan><tspan
         style="font-variant:normal;font-weight:700;font-stretch:normal;font-size:3.88056px;font-family:Arial;writing-mode:lr-tb;fill:#231f20;fill-opacity:1;fill-rule:nonzero;stroke:none;stroke-width:0.352777"
         x="77.935234 80.307182 82.678093 83.756065 85.91407 88.072083 89.363991 90.442993 92.599968 94.970886 97.128891 99.499809 100.79172 102.94972"
         y="135.83015"
         sodipodi:role="line"
         id="tspan1908">object adapter</tspan></text>
  </g>
</svg>
