<?xml version="1.0" encoding="UTF-8" standalone="no"?>
<!-- Created with Inkscape (http://www.inkscape.org/) -->

<svg
   width="118.78696mm"
   height="105.67987mm"
   viewBox="0 0 118.78696 105.67987"
   version="1.1"
   id="svg1"
   inkscape:version="1.3.2 (091e20e, 2023-11-25, custom)"
   sodipodi:docname="figure15-3.svg"
   xmlns:inkscape="http://www.inkscape.org/namespaces/inkscape"
   xmlns:sodipodi="http://sodipodi.sourceforge.net/DTD/sodipodi-0.dtd"
   xmlns="http://www.w3.org/2000/svg"
   xmlns:svg="http://www.w3.org/2000/svg">
  <sodipodi:namedview
     id="namedview1"
     pagecolor="#ffffff"
     bordercolor="#666666"
     borderopacity="1.0"
     inkscape:showpageshadow="2"
     inkscape:pageopacity="0.0"
     inkscape:pagecheckerboard="0"
     inkscape:deskcolor="#d1d1d1"
     inkscape:document-units="mm"
     inkscape:zoom="0.74920735"
     inkscape:cx="224.23699"
     inkscape:cy="199.54422"
     inkscape:window-width="1920"
     inkscape:window-height="1017"
     inkscape:window-x="1072"
     inkscape:window-y="-8"
     inkscape:window-maximized="1"
     inkscape:current-layer="layer1" />
  <defs
     id="defs1" />
  <g
     inkscape:label="Layer 1"
     inkscape:groupmode="layer"
     id="layer1"
     transform="translate(-45.508053,-95.779167)">
    <path
       id="path18581"
       d="m 89.044866,98.996499 v -3.122083 c -1.611313,0 -2.921,1.398765 -2.921,3.122083 0,1.723321 1.309687,3.122081 2.921,3.122081 1.611312,0 2.921,-1.39876 2.921,-3.122081 0,-1.723318 -1.309688,-3.122083 -2.921,-3.122083"
       style="fill:#ffffff;fill-opacity:1;fill-rule:nonzero;stroke:none;stroke-width:0.352777" />
    <path
       id="path18582"
       d="m 89.044866,95.869125 c -1.613958,0 -2.923646,1.400175 -2.923646,3.12561 0,1.725435 1.309688,3.125615 2.923646,3.125615 1.613958,0 2.923646,-1.40018 2.923646,-3.125615 0,-1.725435 -1.309688,-3.12561 -2.923646,-3.12561 z"
       style="fill:none;stroke:#231f20;stroke-width:0.179917;stroke-linecap:butt;stroke-linejoin:miter;stroke-miterlimit:3.86;stroke-dasharray:none;stroke-opacity:1" />
    <path
       id="path18583"
       d="m 89.044866,98.996499 v -1.513416 c -0.947208,0 -1.7145,0.67804 -1.7145,1.513416 0,0.835377 0.767292,1.513421 1.7145,1.513421 0.947208,0 1.7145,-0.678044 1.7145,-1.513421 0,-0.835376 -0.767292,-1.513416 -1.7145,-1.513416"
       style="fill:#231f20;fill-opacity:1;fill-rule:nonzero;stroke:none;stroke-width:0.352777" />
    <path
       id="path18584"
       d="m 89.044866,97.48661 c -0.947208,0 -1.7145,0.678039 -1.7145,1.513416 0,0.835377 0.767292,1.513414 1.7145,1.513414 0.947208,0 1.7145,-0.678037 1.7145,-1.513414 0,-0.835377 -0.767292,-1.513416 -1.7145,-1.513416 z"
       style="fill:none;stroke:#231f20;stroke-width:0.179917;stroke-linecap:butt;stroke-linejoin:miter;stroke-miterlimit:3.86;stroke-dasharray:none;stroke-opacity:1" />
    <path
       id="path18585"
       d="m 89.35972,102.24205 0.145521,3.7465"
       style="fill:none;stroke:#231f20;stroke-width:0.179917;stroke-linecap:butt;stroke-linejoin:miter;stroke-miterlimit:3.86;stroke-dasharray:none;stroke-opacity:1" />
    <path
       id="path18586"
       d="m 90.547699,105.85803 -1.187979,-3.61598 -0.907521,3.69712"
       style="fill:none;stroke:#231f20;stroke-width:0.179917;stroke-linecap:butt;stroke-linejoin:miter;stroke-miterlimit:3.86;stroke-dasharray:none;stroke-opacity:1" />
    <path
       id="path18587"
       d="m 89.505241,105.98855 0.04498,1.17475"
       style="fill:#231f20;fill-opacity:1;fill-rule:evenodd;stroke:#231f20;stroke-width:0.179917;stroke-linecap:square;stroke-linejoin:miter;stroke-miterlimit:3.86;stroke-dasharray:none;stroke-opacity:1" />
    <text
       id="text18587"
       xml:space="preserve"
       x="85.252396"
       y="109.98553"
       style="font-size:4.23333px;stroke-width:0.352777"><tspan
         style="font-variant:normal;font-weight:normal;font-stretch:normal;font-size:3.175px;font-family:Arial;writing-mode:lr-tb;fill:#231f20;fill-opacity:1;fill-rule:nonzero;stroke:none;stroke-width:0.352777"
         x="85.252396 87.017662 88.782928 90.37043 91.250992 92.309326 94.074593"
         y="109.98553"
         sodipodi:role="line"
         id="tspan18587">destroy</tspan></text>
    <path
       id="path18588"
       d="m 76.85022,121.0698 c 0,-2.89172 2.346854,-5.23875 5.241396,-5.23875 h 17.938754 c 2.89718,0 5.24404,2.34703 5.24404,5.24228 0,2.89172 -2.34686,5.23875 -5.24404,5.23875 H 82.091616 c -2.894542,0 -5.241396,-2.34703 -5.241396,-5.24228 z"
       style="fill:none;stroke:#231f20;stroke-width:0.179917;stroke-linecap:butt;stroke-linejoin:miter;stroke-miterlimit:3.86;stroke-dasharray:none;stroke-opacity:1" />
    <text
       id="text18588"
       xml:space="preserve"
       x="85.182114"
       y="119.52464"
       style="font-size:4.23333px;stroke-width:0.352777"><tspan
         style="font-variant:normal;font-weight:normal;font-stretch:normal;font-size:3.175px;font-family:Arial;writing-mode:lr-tb;fill:#231f20;fill-opacity:1;fill-rule:nonzero;stroke:none;stroke-width:0.352777"
         x="85.182114 85.884911 87.650185 89.415451 91.002945 91.88765 92.590446 94.177948"
         y="119.52464"
         sodipodi:role="line"
         id="tspan18588">inactive</tspan></text>
    <path
       id="path18589"
       d="m 89.685158,111.39664 v 4.43441"
       style="fill:none;stroke:#231f20;stroke-width:0.179917;stroke-linecap:square;stroke-linejoin:miter;stroke-miterlimit:3.86;stroke-dasharray:none;stroke-opacity:1" />
    <text
       id="text18589"
       xml:space="preserve"
       x="83.499527"
       y="134.37659"
       style="font-size:4.23333px;stroke-width:0.352777"><tspan
         style="font-variant:normal;font-weight:normal;font-stretch:normal;font-size:3.175px;font-family:Arial;writing-mode:lr-tb;fill:#231f20;fill-opacity:1;fill-rule:nonzero;stroke:none;stroke-width:0.352777"
         x="83.499527 85.264793 87.030067 88.795334 90.382828 91.263397 91.970329 93.557831 95.323097 96.203667"
         y="134.37659"
         sodipodi:role="line"
         id="tspan18589">deactivate</tspan></text>
    <path
       id="path18590"
       d="M 89.952387,126.29797 V 130.048"
       style="fill:none;stroke:#231f20;stroke-width:0.179917;stroke-linecap:butt;stroke-linejoin:miter;stroke-miterlimit:3.86;stroke-dasharray:none;stroke-opacity:1" />
    <path
       id="path18591"
       d="m 91.002783,129.9598 -1.050396,-3.66183 -1.04775,3.66183"
       style="fill:none;stroke:#231f20;stroke-width:0.179917;stroke-linecap:butt;stroke-linejoin:miter;stroke-miterlimit:3.86;stroke-dasharray:none;stroke-opacity:1" />
    <path
       id="path18592"
       d="m 89.952387,130.048 v 1.90853"
       style="fill:none;stroke:#231f20;stroke-width:0.179917;stroke-linecap:square;stroke-linejoin:miter;stroke-miterlimit:3.86;stroke-dasharray:none;stroke-opacity:1" />
    <path
       id="path18593"
       d="m 76.445408,144.55422 c 0,-3.28154 2.661708,-5.94431 5.947833,-5.94431 h 17.536583 c 3.286126,0 5.947836,2.66277 5.947836,5.94784 0,3.28154 -2.66171,5.9443 -5.947836,5.9443 H 82.393241 c -3.286125,0 -5.947833,-2.66276 -5.947833,-5.94783 z"
       style="fill:none;stroke:#231f20;stroke-width:0.179917;stroke-linecap:butt;stroke-linejoin:miter;stroke-miterlimit:3.86;stroke-dasharray:none;stroke-opacity:1" />
    <path
       id="path18594"
       d="m 90.018533,135.18444 v 3.22439"
       style="fill:none;stroke:#231f20;stroke-width:0.179917;stroke-linecap:square;stroke-linejoin:miter;stroke-miterlimit:3.86;stroke-dasharray:none;stroke-opacity:1" />
    <text
       id="text18594"
       xml:space="preserve"
       x="85.562454"
       y="143.35831"
       style="font-size:4.23333px;stroke-width:0.352777"><tspan
         style="font-variant:normal;font-weight:normal;font-stretch:normal;font-size:3.175px;font-family:Arial;writing-mode:lr-tb;fill:#231f20;fill-opacity:1;fill-rule:nonzero;stroke:none;stroke-width:0.352777"
         x="85.562454 87.327721 88.915222 89.799919 90.502724 92.090218"
         y="143.35831"
         sodipodi:role="line"
         id="tspan18594">active</tspan></text>
    <path
       id="path18595"
       d="m 78.128158,174.08878 c 0,-3.1175 2.526771,-5.64445 5.643562,-5.64445 h 16.52852 c 3.11679,0 5.64356,2.52695 5.64356,5.64445 0,3.11749 -2.52677,5.64444 -5.64356,5.64444 H 83.77172 c -3.116791,0 -5.643562,-2.52695 -5.643562,-5.64444 z"
       style="fill:none;stroke:#231f20;stroke-width:0.179917;stroke-linecap:butt;stroke-linejoin:miter;stroke-miterlimit:3.86;stroke-dasharray:none;stroke-opacity:1" />
    <text
       id="text18595"
       xml:space="preserve"
       x="85.988266"
       y="172.67767"
       style="font-size:4.23333px;stroke-width:0.352777"><tspan
         style="font-variant:normal;font-weight:normal;font-stretch:normal;font-size:3.175px;font-family:Arial;writing-mode:lr-tb;fill:#231f20;fill-opacity:1;fill-rule:nonzero;stroke:none;stroke-width:0.352777"
         x="85.988266 87.753532 89.518799 90.221603 91.98687 92.693802 94.459068"
         y="172.67767"
         sodipodi:role="line"
         id="tspan18595">holding</tspan></text>
    <path
       id="path18596"
       d="m 87.129283,150.622 v 3.75003"
       style="fill:none;stroke:#231f20;stroke-width:0.179917;stroke-linecap:butt;stroke-linejoin:miter;stroke-miterlimit:3.86;stroke-dasharray:none;stroke-opacity:1" />
    <path
       id="path18597"
       d="m 88.182324,154.28383 -1.050396,-3.66183 -1.04775,3.66183"
       style="fill:none;stroke:#231f20;stroke-width:0.179917;stroke-linecap:butt;stroke-linejoin:miter;stroke-miterlimit:3.86;stroke-dasharray:none;stroke-opacity:1" />
    <path
       id="path18598"
       d="m 87.129283,154.37203 v 13.87122"
       style="fill:none;stroke:#231f20;stroke-width:0.179917;stroke-linecap:square;stroke-linejoin:miter;stroke-miterlimit:3.86;stroke-dasharray:none;stroke-opacity:1" />
    <path
       id="path18599"
       d="m 93.984637,168.79711 v -3.75003"
       style="fill:none;stroke:#231f20;stroke-width:0.179917;stroke-linecap:butt;stroke-linejoin:miter;stroke-miterlimit:3.86;stroke-dasharray:none;stroke-opacity:1" />
    <path
       id="path18600"
       d="m 92.934241,165.13528 1.050396,3.66183 1.053041,-3.66183"
       style="fill:none;stroke:#231f20;stroke-width:0.179917;stroke-linecap:butt;stroke-linejoin:miter;stroke-miterlimit:3.86;stroke-dasharray:none;stroke-opacity:1" />
    <path
       id="path18601"
       d="m 93.984637,150.50205 v 14.54503"
       style="fill:none;stroke:#231f20;stroke-width:0.179917;stroke-linecap:square;stroke-linejoin:miter;stroke-miterlimit:3.86;stroke-dasharray:none;stroke-opacity:1" />
    <path
       id="path18602"
       d="m 90.145533,179.85317 -0.103188,3.7465"
       style="fill:none;stroke:#231f20;stroke-width:0.179917;stroke-linecap:butt;stroke-linejoin:miter;stroke-miterlimit:3.86;stroke-dasharray:none;stroke-opacity:1" />
    <path
       id="path18603"
       d="m 91.095387,183.53969 -0.949854,-3.68652 -1.148292,3.63008"
       style="fill:none;stroke:#231f20;stroke-width:0.179917;stroke-linecap:butt;stroke-linejoin:miter;stroke-miterlimit:3.86;stroke-dasharray:none;stroke-opacity:1" />
    <path
       id="path18604"
       d="m 90.044991,183.59967 -0.0926,3.39019"
       style="fill:none;stroke:#231f20;stroke-width:0.179917;stroke-linecap:square;stroke-linejoin:miter;stroke-miterlimit:3.86;stroke-dasharray:none;stroke-opacity:1" />
    <text
       id="text18604"
       xml:space="preserve"
       x="82.292366"
       y="190.41887"
       style="font-size:4.23333px;stroke-width:0.352777"><tspan
         style="font-variant:normal;font-weight:normal;font-stretch:normal;font-size:3.175px;font-family:Arial;writing-mode:lr-tb;fill:#231f20;fill-opacity:1;fill-rule:nonzero;stroke:none;stroke-width:0.352777"
         x="82.292366 83.879868 84.938202 86.703468 88.468735 89.349304 91.114571 92.879837 95.000633 97.468704"
         y="190.41887"
         sodipodi:role="line"
         id="tspan18604">create_POA</tspan></text>
    <path
       id="path18605"
       d="m 90.087324,196.19736 v -4.03225"
       style="fill:none;stroke:#231f20;stroke-width:0.179917;stroke-linecap:square;stroke-linejoin:miter;stroke-miterlimit:3.86;stroke-dasharray:none;stroke-opacity:1" />
    <path
       id="path18606"
       d="m 88.608303,199.85566 v -0.59972 c 0,-0.83573 0.677334,-1.51341 1.513417,-1.51341 0.833438,0 1.510771,0.67768 1.510771,1.51341 v 0.59972 c 0,0.83574 -0.677333,1.51342 -1.513417,1.51342 -0.833437,0 -1.510771,-0.67768 -1.510771,-1.51342 z"
       style="fill:#231f20;fill-opacity:1;fill-rule:evenodd;stroke:#231f20;stroke-width:0.179917;stroke-linecap:butt;stroke-linejoin:miter;stroke-miterlimit:3.86;stroke-dasharray:none;stroke-opacity:1" />
    <path
       id="path18607"
       d="m 138.19916,144.99872 c 0,-3.00637 2.43681,-5.44336 5.44248,-5.44336 h 15.12093 c 3.00567,0 5.44248,2.43699 5.44248,5.44336 0,3.00637 -2.43681,5.44336 -5.44248,5.44336 h -15.12093 c -3.00567,0 -5.44248,-2.43699 -5.44248,-5.44336 z"
       style="fill:none;stroke:#231f20;stroke-width:0.179917;stroke-linecap:butt;stroke-linejoin:miter;stroke-miterlimit:3.86;stroke-dasharray:none;stroke-opacity:1" />
    <text
       id="text18607"
       xml:space="preserve"
       x="143.57648"
       y="144.59656"
       style="font-size:4.23333px;stroke-width:0.352777"><tspan
         style="font-variant:normal;font-weight:normal;font-stretch:normal;font-size:3.175px;font-family:Arial;writing-mode:lr-tb;fill:#231f20;fill-opacity:1;fill-rule:nonzero;stroke:none;stroke-width:0.352777"
         x="143.57648 145.34175 146.04456 147.63205 149.21954 150.98482 152.04315 153.80841 154.51535 156.28061"
         y="144.59656"
         sodipodi:role="line"
         id="tspan18607">discarding</tspan></text>
    <path
       id="path18608"
       d="M 138.01395,142.98436 H 134.2648"
       style="fill:none;stroke:#231f20;stroke-width:0.179917;stroke-linecap:butt;stroke-linejoin:miter;stroke-miterlimit:3.86;stroke-dasharray:none;stroke-opacity:1" />
    <path
       id="path18609"
       d="m 134.35212,144.03564 3.66183,-1.05128 -3.66183,-1.05128"
       style="fill:none;stroke:#231f20;stroke-width:0.179917;stroke-linecap:butt;stroke-linejoin:miter;stroke-miterlimit:3.86;stroke-dasharray:none;stroke-opacity:1" />
    <path
       id="path18610"
       d="M 134.2648,142.98436 H 105.67657"
       style="fill:none;stroke:#231f20;stroke-width:0.179917;stroke-linecap:square;stroke-linejoin:miter;stroke-miterlimit:3.86;stroke-dasharray:none;stroke-opacity:1" />
    <path
       id="path18611"
       d="m 105.59455,146.61092 h 3.7465"
       style="fill:none;stroke:#231f20;stroke-width:0.179917;stroke-linecap:butt;stroke-linejoin:miter;stroke-miterlimit:3.86;stroke-dasharray:none;stroke-opacity:1" />
    <path
       id="path18612"
       d="m 109.25374,145.56317 -3.65919,1.04775 3.65919,1.05127"
       style="fill:none;stroke:#231f20;stroke-width:0.179917;stroke-linecap:butt;stroke-linejoin:miter;stroke-miterlimit:3.86;stroke-dasharray:none;stroke-opacity:1" />
    <path
       id="path18613"
       d="M 138.13037,146.61092 H 109.34105"
       style="fill:none;stroke:#231f20;stroke-width:0.179917;stroke-linecap:square;stroke-linejoin:miter;stroke-miterlimit:3.86;stroke-dasharray:none;stroke-opacity:1" />
    <text
       id="text18613"
       xml:space="preserve"
       x="111.32212"
       y="150.64317"
       style="font-size:4.23333px;stroke-width:0.352777"><tspan
         style="font-variant:normal;font-weight:normal;font-stretch:normal;font-size:3.175px;font-family:Arial;writing-mode:lr-tb;fill:#231f20;fill-opacity:1;fill-rule:nonzero;stroke:none;stroke-width:0.352777"
         x="111.32212 113.08739 114.67489 115.55545 116.26239 117.84988 119.61516 120.49572"
         y="150.64317"
         sodipodi:role="line"
         id="tspan18613">activate</tspan><tspan
         style="font-variant:normal;font-weight:normal;font-stretch:normal;font-size:3.175px;font-family:Arial;writing-mode:lr-tb;fill:#231f20;fill-opacity:1;fill-rule:nonzero;stroke:none;stroke-width:0.352777"
         x="108.89953 110.66479 111.37173 112.95923 114.54673 116.312 117.3662 119.13146 120.89673 121.95506 123.72033 125.4856 127.25086 129.01613 130.60364 131.48833"
         y="138.95218"
         sodipodi:role="line"
         id="tspan18614">discard_requests</tspan><tspan
         style="font-variant:normal;font-weight:normal;font-stretch:normal;font-size:3.175px;font-family:Arial;writing-mode:lr-tb;fill:#231f20;fill-opacity:1;fill-rule:nonzero;stroke:none;stroke-width:0.352777"
         x="74.49543 76.260696 77.848198 78.732895 79.435692 81.023193 82.78846 83.673164"
         y="162.40495"
         sodipodi:role="line"
         id="tspan18615">activate</tspan><tspan
         style="font-variant:normal;font-weight:normal;font-stretch:normal;font-size:3.175px;font-family:Arial;writing-mode:lr-tb;fill:#231f20;fill-opacity:1;fill-rule:nonzero;stroke:none;stroke-width:0.352777"
         x="95.5298 97.295067 99.060341 99.763138 101.5284 103.29367 104.35201 106.11727 107.88254 109.6478 111.41307 113.00057 113.88527"
         y="162.74023"
         sodipodi:role="line"
         id="tspan18616">hold_requests</tspan></text>
    <path
       id="path18616"
       d="m 105.75066,172.6565 3.22527,-1.91558"
       style="fill:none;stroke:#231f20;stroke-width:0.179917;stroke-linecap:butt;stroke-linejoin:miter;stroke-miterlimit:3.86;stroke-dasharray:none;stroke-opacity:1" />
    <path
       id="path18617"
       d="m 108.36474,169.88367 -2.61408,2.77283 3.683,-0.96661"
       style="fill:none;stroke:#231f20;stroke-width:0.179917;stroke-linecap:butt;stroke-linejoin:miter;stroke-miterlimit:3.86;stroke-dasharray:none;stroke-opacity:1" />
    <path
       id="path18618"
       d="m 108.97328,170.74092 34.1974,-20.29884"
       style="fill:none;stroke:#231f20;stroke-width:0.179917;stroke-linecap:square;stroke-linejoin:miter;stroke-miterlimit:3.86;stroke-dasharray:none;stroke-opacity:1" />
    <text
       id="text18618"
       xml:space="preserve"
       x="115.35288"
       y="171.80983"
       style="font-size:4.23333px;stroke-width:0.352777"><tspan
         style="font-variant:normal;font-weight:normal;font-stretch:normal;font-size:3.175px;font-family:Arial;writing-mode:lr-tb;fill:#231f20;fill-opacity:1;fill-rule:nonzero;stroke:none;stroke-width:0.352777"
         x="115.35288 117.11815 118.88342 119.58621 121.35149 123.11675 124.17508 125.94035 127.70562 129.47089 131.23615 132.82365 133.70834"
         y="171.80983"
         sodipodi:role="line"
         id="tspan18618">hold_requests</tspan></text>
    <path
       id="path18619"
       d="m 105.59455,120.60767 h 3.7465"
       style="fill:none;stroke:#231f20;stroke-width:0.179917;stroke-linecap:butt;stroke-linejoin:miter;stroke-miterlimit:3.86;stroke-dasharray:none;stroke-opacity:1" />
    <path
       id="path18620"
       d="m 109.25374,119.55992 -3.65919,1.04775 3.65919,1.05127"
       style="fill:none;stroke:#231f20;stroke-width:0.179917;stroke-linecap:butt;stroke-linejoin:miter;stroke-miterlimit:3.86;stroke-dasharray:none;stroke-opacity:1" />
    <path
       id="path18621"
       d="m 151.03145,120.60767 h -41.6904"
       style="fill:none;stroke:#231f20;stroke-width:0.179917;stroke-linecap:square;stroke-linejoin:miter;stroke-miterlimit:3.86;stroke-dasharray:none;stroke-opacity:1" />
    <path
       id="path18622"
       d="M 150.83037,139.96105 V 120.60767"
       style="fill:none;stroke:#231f20;stroke-width:0.179917;stroke-linecap:square;stroke-linejoin:miter;stroke-miterlimit:3.86;stroke-dasharray:none;stroke-opacity:1" />
    <path
       id="path18623"
       d="M 150.4282,176.24778 H 105.67393"
       style="fill:none;stroke:#231f20;stroke-width:0.179917;stroke-linecap:square;stroke-linejoin:miter;stroke-miterlimit:3.86;stroke-dasharray:none;stroke-opacity:1" />
    <path
       id="path18624"
       d="m 150.49699,150.76311 v 3.75003"
       style="fill:none;stroke:#231f20;stroke-width:0.179917;stroke-linecap:butt;stroke-linejoin:miter;stroke-miterlimit:3.86;stroke-dasharray:none;stroke-opacity:1" />
    <path
       id="path18625"
       d="m 151.54739,154.42494 -1.0504,-3.66183 -1.05304,3.66183"
       style="fill:none;stroke:#231f20;stroke-width:0.179917;stroke-linecap:butt;stroke-linejoin:miter;stroke-miterlimit:3.86;stroke-dasharray:none;stroke-opacity:1" />
    <path
       id="path18626"
       d="m 150.49699,154.51314 v 21.73463"
       style="fill:none;stroke:#231f20;stroke-width:0.179917;stroke-linecap:square;stroke-linejoin:miter;stroke-miterlimit:3.86;stroke-dasharray:none;stroke-opacity:1" />
    <path
       id="path18627"
       d="M 52.659366,176.64994 H 78.461533"
       style="fill:none;stroke:#231f20;stroke-width:0.179917;stroke-linecap:square;stroke-linejoin:miter;stroke-miterlimit:3.86;stroke-dasharray:none;stroke-opacity:1" />
    <path
       id="path18628"
       d="m 52.659366,141.97542 v 34.67452"
       style="fill:none;stroke:#231f20;stroke-width:0.179917;stroke-linecap:square;stroke-linejoin:miter;stroke-miterlimit:3.86;stroke-dasharray:none;stroke-opacity:1" />
    <text
       id="text18628"
       xml:space="preserve"
       x="45.399532"
       y="141.30515"
       style="font-size:4.23333px;stroke-width:0.352777"><tspan
         style="font-variant:normal;font-weight:normal;font-stretch:normal;font-size:3.175px;font-family:Arial;writing-mode:lr-tb;fill:#231f20;fill-opacity:1;fill-rule:nonzero;stroke:none;stroke-width:0.352777"
         x="45.399532 47.164799 48.930065 50.695332 52.282833 53.163399 53.870331 55.457832 57.223099 58.103664"
         y="141.30515"
         sodipodi:role="line"
         id="tspan18628">deactivate</tspan></text>
    <path
       id="path18629"
       d="M 76.530074,121.21092 H 72.780929"
       style="fill:none;stroke:#231f20;stroke-width:0.179917;stroke-linecap:butt;stroke-linejoin:miter;stroke-miterlimit:3.86;stroke-dasharray:none;stroke-opacity:1" />
    <path
       id="path18630"
       d="m 72.868241,122.26219 3.661833,-1.05127 -3.661833,-1.04775"
       style="fill:none;stroke:#231f20;stroke-width:0.179917;stroke-linecap:butt;stroke-linejoin:miter;stroke-miterlimit:3.86;stroke-dasharray:none;stroke-opacity:1" />
    <path
       id="path18631"
       d="M 72.778283,121.21092 H 52.659366"
       style="fill:none;stroke:#231f20;stroke-width:0.179917;stroke-linecap:square;stroke-linejoin:miter;stroke-miterlimit:3.86;stroke-dasharray:none;stroke-opacity:1" />
    <path
       id="path18632"
       d="M 52.659366,138.95211 V 121.21092"
       style="fill:none;stroke:#231f20;stroke-width:0.179917;stroke-linecap:square;stroke-linejoin:miter;stroke-miterlimit:3.86;stroke-dasharray:none;stroke-opacity:1" />
    <text
       id="text18632"
       xml:space="preserve"
       x="118.98264"
       y="118.66033"
       style="font-size:4.23333px;stroke-width:0.352777"><tspan
         style="font-variant:normal;font-weight:normal;font-stretch:normal;font-size:3.175px;font-family:Arial;writing-mode:lr-tb;fill:#231f20;fill-opacity:1;fill-rule:nonzero;stroke:none;stroke-width:0.352777"
         x="118.98264 120.7479 122.51317 124.27843 125.86594 126.74651 127.45344 129.04094 130.8062 131.68677"
         y="118.66033"
         sodipodi:role="line"
         id="tspan18632">deactivate</tspan><tspan
         style="font-variant:normal;font-weight:normal;font-stretch:normal;font-size:3.175px;font-family:Arial;writing-mode:lr-tb;fill:#231f20;fill-opacity:1;fill-rule:nonzero;stroke:none;stroke-width:0.352777"
         x="114.95187 116.71714 117.41994 119.00744 120.59494 122.36021 123.41854 125.18381 126.94907 128.0074 129.77267 131.53793 133.30321 135.06848 136.65598 137.53654"
         y="180.68205"
         sodipodi:role="line"
         id="tspan18633">discard_requests</tspan></text>
  </g>
</svg>
