<?xml version="1.0" encoding="UTF-8" standalone="no"?>
<!-- Created with Inkscape (http://www.inkscape.org/) -->

<svg
   width="167.48918mm"
   height="79.562065mm"
   viewBox="0 0 167.48918 79.562065"
   version="1.1"
   id="svg1"
   inkscape:version="1.3.2 (091e20e, 2023-11-25, custom)"
   sodipodi:docname="figure16-6.svg"
   xmlns:inkscape="http://www.inkscape.org/namespaces/inkscape"
   xmlns:sodipodi="http://sodipodi.sourceforge.net/DTD/sodipodi-0.dtd"
   xmlns="http://www.w3.org/2000/svg"
   xmlns:svg="http://www.w3.org/2000/svg">
  <sodipodi:namedview
     id="namedview1"
     pagecolor="#ffffff"
     bordercolor="#666666"
     borderopacity="1.0"
     inkscape:showpageshadow="2"
     inkscape:pageopacity="0.0"
     inkscape:pagecheckerboard="0"
     inkscape:deskcolor="#d1d1d1"
     inkscape:document-units="mm"
     inkscape:zoom="0.74920735"
     inkscape:cx="316.33432"
     inkscape:cy="150.1587"
     inkscape:window-width="1920"
     inkscape:window-height="1017"
     inkscape:window-x="1072"
     inkscape:window-y="-8"
     inkscape:window-maximized="1"
     inkscape:current-layer="layer1" />
  <defs
     id="defs1" />
  <g
     inkscape:label="Layer 1"
     inkscape:groupmode="layer"
     id="layer1"
     transform="translate(-21.16646,-108.74375)">
    <path
       id="path22353"
       d="m 94.281417,188.21586 v -47.625 l -3.175,6.35 -3.174999,-38.09999"
       style="fill:none;stroke:#231f20;stroke-width:0.179917;stroke-linecap:square;stroke-linejoin:miter;stroke-miterlimit:3.86;stroke-dasharray:none;stroke-opacity:1" />
    <path
       id="path22354"
       d="m 103.80642,188.21586 v -47.625 l -3.175,6.35 -3.175003,-38.09999"
       style="fill:none;stroke:#231f20;stroke-width:0.179917;stroke-linecap:square;stroke-linejoin:miter;stroke-miterlimit:3.86;stroke-dasharray:none;stroke-opacity:1" />
    <path
       id="path22355"
       d="m 27.606418,108.83734 c -3.505729,0 -6.35,17.78 -6.35,39.6875 0,21.90749 2.844271,39.68749 6.35,39.68749 3.505729,0 6.35,-17.78 6.35,-39.68749 0,-21.9075 -2.844271,-39.6875 -6.35,-39.6875 z"
       style="fill:none;stroke:#231f20;stroke-width:0.179917;stroke-linecap:butt;stroke-linejoin:miter;stroke-miterlimit:3.86;stroke-dasharray:none;stroke-opacity:1" />
    <path
       id="path22356"
       d="m 181.11237,108.83734 c -4.11427,0 -7.45331,17.78 -7.45331,39.6875 0,21.90749 3.33904,39.68749 7.45331,39.68749 4.11428,0 7.45332,-17.78 7.45332,-39.68749 0,-21.9075 -3.33904,-39.6875 -7.45332,-39.6875 z"
       style="fill:none;stroke:#231f20;stroke-width:0.179917;stroke-linecap:butt;stroke-linejoin:miter;stroke-miterlimit:3.86;stroke-dasharray:none;stroke-opacity:1" />
    <text
       id="text22356"
       xml:space="preserve"
       x="23.297182"
       y="150.09822"
       style="font-size:4.23333px;stroke-width:0.352777"><tspan
         style="font-variant:normal;font-weight:normal;font-stretch:normal;font-size:3.52777px;font-family:'Times New Roman';writing-mode:lr-tb;fill:#231f20;fill-opacity:1;fill-rule:nonzero;stroke:none;stroke-width:0.352777"
         x="23.297182 25.649494 26.629278 27.609064 29.175894 30.94116 175.72612 177.68568 179.25665 180.43074 182.19188 183.76283 185.52397"
         y="150.09822"
         sodipodi:role="line"
         id="tspan22356">ClientServant</tspan></text>
    <path
       id="path22357"
       d="m 42.764397,122.4722 3.251729,-0.93134 -3.251729,-0.93133 v 0.93133 z"
       style="fill:none;stroke:#231f20;stroke-width:0.34925;stroke-linecap:butt;stroke-linejoin:miter;stroke-miterlimit:3.86;stroke-dasharray:none;stroke-opacity:1" />
    <path
       id="path22358"
       d="m 42.764397,122.4722 3.251729,-0.93134 -3.251729,-0.93133 v 0.93133"
       style="fill:#231f20;fill-opacity:1;fill-rule:evenodd;stroke:none;stroke-width:0.352777" />
    <path
       id="path22359"
       d="M 42.589772,121.54086 H 33.956418"
       style="fill:none;stroke:#231f20;stroke-width:0.179917;stroke-linecap:square;stroke-linejoin:miter;stroke-miterlimit:3.86;stroke-dasharray:none;stroke-opacity:1" />
    <path
       id="path22360"
       d="m 45.939397,135.1722 3.251729,-0.93134 -3.251729,-0.93133 v 0.93133 z"
       style="fill:none;stroke:#231f20;stroke-width:0.34925;stroke-linecap:butt;stroke-linejoin:miter;stroke-miterlimit:3.86;stroke-dasharray:none;stroke-opacity:1" />
    <path
       id="path22361"
       d="m 45.939397,135.1722 3.251729,-0.93134 -3.251729,-0.93133 v 0.93133"
       style="fill:#231f20;fill-opacity:1;fill-rule:evenodd;stroke:none;stroke-width:0.352777" />
    <path
       id="path22362"
       d="M 45.764772,134.24086 H 33.956418"
       style="fill:none;stroke:#231f20;stroke-width:0.179917;stroke-linecap:square;stroke-linejoin:miter;stroke-miterlimit:3.86;stroke-dasharray:none;stroke-opacity:1" />
    <text
       id="text22362"
       xml:space="preserve"
       x="49.829929"
       y="123.11073"
       style="font-size:4.23333px;stroke-width:0.352777"><tspan
         style="font-variant:normal;font-weight:normal;font-stretch:normal;font-size:3.52777px;font-family:'Times New Roman';writing-mode:lr-tb;fill:#231f20;fill-opacity:1;fill-rule:nonzero;stroke:none;stroke-width:0.352777"
         x="49.829929 51.202457 52.769283 54.534554 56.29982 58.060951 59.235039 60.801868 62.567135 64.32827 65.899231 67.271759"
         y="123.11073"
         sodipodi:role="line"
         id="tspan22362">send_request</tspan></text>
    <path
       id="path22363"
       d="m 83.970605,127.31231 3.368146,0.34219 -2.672292,-2.07433 -0.34925,0.86431 z"
       style="fill:none;stroke:#231f20;stroke-width:0.34925;stroke-linecap:butt;stroke-linejoin:miter;stroke-miterlimit:3.86;stroke-dasharray:none;stroke-opacity:1" />
    <path
       id="path22364"
       d="m 83.970605,127.31231 3.368146,0.34219 -2.672292,-2.07433 -0.34925,0.86431"
       style="fill:#231f20;fill-opacity:1;fill-rule:evenodd;stroke:none;stroke-width:0.352777" />
    <path
       id="path22365"
       d="m 84.153168,126.38098 -12.09675,-4.84011"
       style="fill:none;stroke:#231f20;stroke-width:0.179917;stroke-linecap:square;stroke-linejoin:miter;stroke-miterlimit:3.86;stroke-dasharray:none;stroke-opacity:1" />
    <text
       id="text22365"
       xml:space="preserve"
       x="53.004929"
       y="135.81073"
       style="font-size:4.23333px;stroke-width:0.352777"><tspan
         style="font-variant:normal;font-weight:normal;font-stretch:normal;font-size:3.52777px;font-family:'Times New Roman';writing-mode:lr-tb;fill:#231f20;fill-opacity:1;fill-rule:nonzero;stroke:none;stroke-width:0.352777"
         x="53.004929 54.377457 55.944286 57.709553 59.474819 61.23595 62.997086 64.766487 65.742134"
         y="135.81073"
         sodipodi:role="line"
         id="tspan22365">send_poll</tspan></text>
    <path
       id="path22366"
       d="m 84.534168,130.00753 2.791354,-1.91558 -3.381375,0.14464 0.293687,0.88547 z"
       style="fill:none;stroke:#231f20;stroke-width:0.34925;stroke-linecap:butt;stroke-linejoin:miter;stroke-miterlimit:3.86;stroke-dasharray:none;stroke-opacity:1" />
    <path
       id="path22367"
       d="m 84.534168,130.00753 2.791354,-1.91558 -3.381375,0.14464 0.293687,0.88547"
       style="fill:#231f20;fill-opacity:1;fill-rule:evenodd;stroke:none;stroke-width:0.352777" />
    <path
       id="path22368"
       d="m 84.071147,129.1785 -15.189729,5.06236"
       style="fill:none;stroke:#231f20;stroke-width:0.179917;stroke-linecap:square;stroke-linejoin:miter;stroke-miterlimit:3.86;stroke-dasharray:none;stroke-opacity:1" />
    <path
       id="path22369"
       d="m 109.4394,128.8222 3.25173,-0.93134 -3.25173,-0.93133 v 0.93133 z"
       style="fill:none;stroke:#231f20;stroke-width:0.34925;stroke-linecap:butt;stroke-linejoin:miter;stroke-miterlimit:3.86;stroke-dasharray:none;stroke-opacity:1" />
    <path
       id="path22370"
       d="m 109.4394,128.8222 3.25173,-0.93134 -3.25173,-0.93133 v 0.93133"
       style="fill:#231f20;fill-opacity:1;fill-rule:evenodd;stroke:none;stroke-width:0.352777" />
    <path
       id="path22371"
       d="m 109.26477,127.89086 h -8.63335"
       style="fill:none;stroke:#231f20;stroke-width:0.179917;stroke-linecap:square;stroke-linejoin:miter;stroke-miterlimit:3.86;stroke-dasharray:none;stroke-opacity:1" />
    <text
       id="text22371"
       xml:space="preserve"
       x="113.97072"
       y="127.12887"
       style="font-size:4.23333px;stroke-width:0.352777"><tspan
         style="font-variant:normal;font-weight:normal;font-stretch:normal;font-size:3.52777px;font-family:'Times New Roman';writing-mode:lr-tb;fill:#231f20;fill-opacity:1;fill-rule:nonzero;stroke:none;stroke-width:0.352777"
         x="113.97072 115.15308 116.71577 118.27847 119.84943 120.82508 122.59448 124.15717 125.92657 127.10066 128.66336 130.4245 132.19389 133.75659 135.12912 136.11304 137.87416 139.24669 140.81766 141.99174 143.75288 144.7368 146.2995 147.86218 149.63159 151.19429 152.96368 154.72482 155.70047 157.27144 159.03256 160.01648"
         y="127.12887"
         sodipodi:role="line"
         id="tspan22371">receive_request_service_contexts</tspan><tspan
         style="font-variant:normal;font-weight:normal;font-stretch:normal;font-size:3.52777px;font-family:'Times New Roman';writing-mode:lr-tb;fill:#231f20;fill-opacity:1;fill-rule:nonzero;stroke:none;stroke-width:0.352777"
         x="141.90906 143.08315 144.64584 146.21681 147.77951 148.76343 150.52455 152.09552 153.85666 155.03075 156.59344 158.36284 160.12398 161.69493 163.06746"
         y="139.82886"
         sodipodi:role="line"
         id="tspan22372">receive_request</tspan></text>
    <path
       id="path22372"
       d="m 136.65973,139.98056 3.28348,-0.82903 -3.22263,-1.03716 -0.0291,0.93133 z"
       style="fill:none;stroke:#231f20;stroke-width:0.34925;stroke-linecap:butt;stroke-linejoin:miter;stroke-miterlimit:3.86;stroke-dasharray:none;stroke-opacity:1" />
    <path
       id="path22373"
       d="m 136.65973,139.98056 3.28348,-0.82903 -3.22263,-1.03716 -0.0291,0.93133"
       style="fill:#231f20;fill-opacity:1;fill-rule:evenodd;stroke:none;stroke-width:0.352777" />
    <path
       id="path22374"
       d="m 160.95642,127.89086 c 5.82083,1.49225 1.5875,7.57767 -3.175,6.35 -10.39019,-2.67758 -3.96875,-3.00566 -12.7,-3.175 -3.17765,-0.0635 -12.43542,-1.15358 -12.7,3.175 -0.13759,2.23661 1.72243,4.7237 4.13543,4.80131"
       style="fill:none;stroke:#231f20;stroke-width:0.179917;stroke-linecap:square;stroke-linejoin:miter;stroke-miterlimit:3.86;stroke-dasharray:none;stroke-opacity:1" />
    <path
       id="path22375"
       d="m 169.7644,141.5222 3.25172,-0.93134 -3.25172,-0.93133 v 0.93133 z"
       style="fill:none;stroke:#231f20;stroke-width:0.34925;stroke-linecap:butt;stroke-linejoin:miter;stroke-miterlimit:3.86;stroke-dasharray:none;stroke-opacity:1" />
    <path
       id="path22376"
       d="m 169.7644,141.5222 3.25172,-0.93134 -3.25172,-0.93133 v 0.93133"
       style="fill:#231f20;fill-opacity:1;fill-rule:evenodd;stroke:none;stroke-width:0.352777" />
    <path
       id="path22377"
       d="m 169.58977,140.59086 h -5.45835"
       style="fill:none;stroke:#231f20;stroke-width:0.179917;stroke-linecap:square;stroke-linejoin:miter;stroke-miterlimit:3.86;stroke-dasharray:none;stroke-opacity:1" />
    <path
       id="path22378"
       d="m 170.48142,162.81586 h 3.175"
       style="fill:none;stroke:#231f20;stroke-width:0.179917;stroke-linecap:square;stroke-linejoin:miter;stroke-miterlimit:3.86;stroke-dasharray:none;stroke-opacity:1" />
    <path
       id="path22379"
       d="m 161.67873,157.3725 -3.32581,-0.62089 2.49237,2.28953 0.41804,-0.83608 z"
       style="fill:none;stroke:#231f20;stroke-width:0.34925;stroke-linecap:butt;stroke-linejoin:miter;stroke-miterlimit:3.86;stroke-dasharray:none;stroke-opacity:1" />
    <path
       id="path22380"
       d="m 161.67873,157.3725 -3.32581,-0.62089 2.49237,2.28953 0.41804,-0.83608"
       style="fill:#231f20;fill-opacity:1;fill-rule:evenodd;stroke:none;stroke-width:0.352777" />
    <path
       id="path22381"
       d="m 161.42208,158.2862 9.05934,4.52966"
       style="fill:none;stroke:#231f20;stroke-width:0.179917;stroke-linecap:square;stroke-linejoin:miter;stroke-miterlimit:3.86;stroke-dasharray:none;stroke-opacity:1" />
    <text
       id="text22381"
       xml:space="preserve"
       x="139.13094"
       y="155.70386"
       style="font-size:4.23333px;stroke-width:0.352777"><tspan
         style="font-variant:normal;font-weight:normal;font-stretch:normal;font-size:3.52777px;font-family:'Times New Roman';writing-mode:lr-tb;fill:#231f20;fill-opacity:1;fill-rule:nonzero;stroke:none;stroke-width:0.352777"
         x="139.13094 140.50346 142.07443 143.83556 145.59669 147.36609 148.54018 150.10287 151.87228 152.84793"
         y="155.70386"
         sodipodi:role="line"
         id="tspan22381">send_reply</tspan></text>
    <path
       id="path22382"
       d="m 161.67608,161.88453 -3.25702,0.93133 3.25702,0.93134 v -0.93134 z"
       style="fill:none;stroke:#231f20;stroke-width:0.34925;stroke-linecap:butt;stroke-linejoin:miter;stroke-miterlimit:3.86;stroke-dasharray:none;stroke-opacity:1" />
    <path
       id="path22383"
       d="m 161.67608,161.88453 -3.25702,0.93133 3.25702,0.93134 v -0.93134"
       style="fill:#231f20;fill-opacity:1;fill-rule:evenodd;stroke:none;stroke-width:0.352777" />
    <path
       id="path22384"
       d="m 161.85335,162.81586 h 8.62807"
       style="fill:none;stroke:#231f20;stroke-width:0.179917;stroke-linecap:square;stroke-linejoin:miter;stroke-miterlimit:3.86;stroke-dasharray:none;stroke-opacity:1" />
    <text
       id="text22384"
       xml:space="preserve"
       x="132.67345"
       y="165.22887"
       style="font-size:4.23333px;stroke-width:0.352777"><tspan
         style="font-variant:normal;font-weight:normal;font-stretch:normal;font-size:3.52777px;font-family:'Times New Roman';writing-mode:lr-tb;fill:#231f20;fill-opacity:1;fill-rule:nonzero;stroke:none;stroke-width:0.352777"
         x="132.67345 134.04597 135.60867 137.36981 139.13921 140.90034 142.46303 144.23244 145.79514 147.36609 149.12723 150.11115 151.08679 152.8562"
         y="165.22887"
         sodipodi:role="line"
         id="tspan22384">send_exception</tspan></text>
    <path
       id="path22385"
       d="m 160.33465,169.25759 -2.04259,2.69875 3.16442,-1.2065 -0.56092,-0.74436 z"
       style="fill:none;stroke:#231f20;stroke-width:0.34925;stroke-linecap:butt;stroke-linejoin:miter;stroke-miterlimit:3.86;stroke-dasharray:none;stroke-opacity:1" />
    <path
       id="path22386"
       d="m 160.33465,169.25759 -2.04259,2.69875 3.16442,-1.2065 -0.56092,-0.74436"
       style="fill:#231f20;fill-opacity:1;fill-rule:evenodd;stroke:none;stroke-width:0.352777" />
    <path
       id="path22387"
       d="m 161.03844,169.89964 9.44298,-7.08377"
       style="fill:none;stroke:#231f20;stroke-width:0.179917;stroke-linecap:square;stroke-linejoin:miter;stroke-miterlimit:3.86;stroke-dasharray:none;stroke-opacity:1" />
    <text
       id="text22387"
       xml:space="preserve"
       x="139.13094"
       y="174.75386"
       style="font-size:4.23333px;stroke-width:0.352777"><tspan
         style="font-variant:normal;font-weight:normal;font-stretch:normal;font-size:3.52777px;font-family:'Times New Roman';writing-mode:lr-tb;fill:#231f20;fill-opacity:1;fill-rule:nonzero;stroke:none;stroke-width:0.352777"
         x="139.13094 140.50346 142.07443 143.83556 145.59669 147.36609 149.12723 150.11115 151.87228 153.43497"
         y="174.75386"
         sodipodi:role="line"
         id="tspan22387">send_other</tspan></text>
    <path
       id="path22388"
       d="m 37.851085,158.70953 -3.257021,0.93133 3.257021,0.93134 v -0.93134 z"
       style="fill:none;stroke:#231f20;stroke-width:0.34925;stroke-linecap:butt;stroke-linejoin:miter;stroke-miterlimit:3.86;stroke-dasharray:none;stroke-opacity:1" />
    <path
       id="path22389"
       d="m 37.851085,158.70953 -3.257021,0.93133 3.257021,0.93134 v -0.93134"
       style="fill:#231f20;fill-opacity:1;fill-rule:evenodd;stroke:none;stroke-width:0.352777" />
    <path
       id="path22390"
       d="M 40.306418,159.64086 H 38.028356"
       style="fill:none;stroke:#231f20;stroke-width:0.179917;stroke-linecap:square;stroke-linejoin:miter;stroke-miterlimit:3.86;stroke-dasharray:none;stroke-opacity:1" />
    <path
       id="path22391"
       d="m 53.006418,153.29086 -12.7,6.35"
       style="fill:none;stroke:#231f20;stroke-width:0.179917;stroke-linecap:square;stroke-linejoin:miter;stroke-miterlimit:3.86;stroke-dasharray:none;stroke-opacity:1" />
    <text
       id="text22391"
       xml:space="preserve"
       x="56.179928"
       y="153.25558"
       style="font-size:4.23333px;stroke-width:0.352777"><tspan
         style="font-variant:normal;font-weight:normal;font-stretch:normal;font-size:3.52777px;font-family:'Times New Roman';writing-mode:lr-tb;fill:#231f20;fill-opacity:1;fill-rule:nonzero;stroke:none;stroke-width:0.352777"
         x="56.179928 57.35815 58.920849 60.487679 62.054508 63.038425 64.799561 66.362251 68.131653 69.30574 70.868439 72.63784 73.613487"
         y="153.25558"
         sodipodi:role="line"
         id="tspan22391">receive_reply</tspan></text>
    <path
       id="path22392"
       d="m 53.006418,159.64086 h -12.7"
       style="fill:none;stroke:#231f20;stroke-width:0.179917;stroke-linecap:square;stroke-linejoin:miter;stroke-miterlimit:3.86;stroke-dasharray:none;stroke-opacity:1" />
    <text
       id="text22392"
       xml:space="preserve"
       x="56.179928"
       y="162.78059"
       style="font-size:4.23333px;stroke-width:0.352777"><tspan
         style="font-variant:normal;font-weight:normal;font-stretch:normal;font-size:3.52777px;font-family:'Times New Roman';writing-mode:lr-tb;fill:#231f20;fill-opacity:1;fill-rule:nonzero;stroke:none;stroke-width:0.352777"
         x="56.179928 57.35815 58.920849 60.487679 62.054508 63.038425 64.799561 66.362251 68.131653 69.694351 71.463753 73.026443 74.589142 76.358543 77.33419 78.318115 80.079247"
         y="162.78059"
         sodipodi:role="line"
         id="tspan22392">receive_exception</tspan></text>
    <path
       id="path22393"
       d="m 53.006418,169.16586 -12.7,-9.525"
       style="fill:none;stroke:#231f20;stroke-width:0.179917;stroke-linecap:square;stroke-linejoin:miter;stroke-miterlimit:3.86;stroke-dasharray:none;stroke-opacity:1" />
    <text
       id="text22393"
       xml:space="preserve"
       x="56.179928"
       y="172.30559"
       style="font-size:4.23333px;stroke-width:0.352777"><tspan
         style="font-variant:normal;font-weight:normal;font-stretch:normal;font-size:3.52777px;font-family:'Times New Roman';writing-mode:lr-tb;fill:#231f20;fill-opacity:1;fill-rule:nonzero;stroke:none;stroke-width:0.352777"
         x="56.179928 57.35815 58.920849 60.487679 62.054508 63.038425 64.799561 66.362251 68.131653 69.892784 70.876709 72.63784 74.208801"
         y="172.30559"
         sodipodi:role="line"
         id="tspan22393">receive_other</tspan></text>
    <path
       id="path22394"
       d="m 107.69844,152.35953 -3.25173,0.93133 3.25173,0.93134 v -0.93134 z"
       style="fill:none;stroke:#231f20;stroke-width:0.34925;stroke-linecap:butt;stroke-linejoin:miter;stroke-miterlimit:3.86;stroke-dasharray:none;stroke-opacity:1" />
    <path
       id="path22395"
       d="m 107.69844,152.35953 -3.25173,0.93133 3.25173,0.93134 v -0.93134"
       style="fill:#231f20;fill-opacity:1;fill-rule:evenodd;stroke:none;stroke-width:0.352777" />
    <path
       id="path22396"
       d="m 107.87306,153.29086 h 30.85836"
       style="fill:none;stroke:#231f20;stroke-width:0.179917;stroke-linecap:square;stroke-linejoin:miter;stroke-miterlimit:3.86;stroke-dasharray:none;stroke-opacity:1" />
    <path
       id="path22397"
       d="m 82.301084,152.35953 -3.251729,0.93133 3.251729,0.93134 v -0.93134 z"
       style="fill:none;stroke:#231f20;stroke-width:0.34925;stroke-linecap:butt;stroke-linejoin:miter;stroke-miterlimit:3.86;stroke-dasharray:none;stroke-opacity:1" />
    <path
       id="path22398"
       d="m 82.301084,152.35953 -3.251729,0.93133 3.251729,0.93134 v -0.93134"
       style="fill:#231f20;fill-opacity:1;fill-rule:evenodd;stroke:none;stroke-width:0.352777" />
    <path
       id="path22399"
       d="M 82.478355,153.29086 H 94.281417"
       style="fill:none;stroke:#231f20;stroke-width:0.179917;stroke-linecap:square;stroke-linejoin:miter;stroke-miterlimit:3.86;stroke-dasharray:none;stroke-opacity:1" />
    <path
       id="path22400"
       d="m 107.70108,161.88453 -3.25702,0.93133 3.25702,0.93134 v -0.93134 z"
       style="fill:none;stroke:#231f20;stroke-width:0.34925;stroke-linecap:butt;stroke-linejoin:miter;stroke-miterlimit:3.86;stroke-dasharray:none;stroke-opacity:1" />
    <path
       id="path22401"
       d="m 107.70108,161.88453 -3.25702,0.93133 3.25702,0.93134 v -0.93134"
       style="fill:#231f20;fill-opacity:1;fill-rule:evenodd;stroke:none;stroke-width:0.352777" />
    <path
       id="path22402"
       d="m 107.87835,162.81586 h 24.50307"
       style="fill:none;stroke:#231f20;stroke-width:0.179917;stroke-linecap:square;stroke-linejoin:miter;stroke-miterlimit:3.86;stroke-dasharray:none;stroke-opacity:1" />
    <path
       id="path22403"
       d="m 88.651084,161.88453 -3.251729,0.93133 3.251729,0.93134 v -0.93134 z"
       style="fill:none;stroke:#231f20;stroke-width:0.34925;stroke-linecap:butt;stroke-linejoin:miter;stroke-miterlimit:3.86;stroke-dasharray:none;stroke-opacity:1" />
    <path
       id="path22404"
       d="m 88.651084,161.88453 -3.251729,0.93133 3.251729,0.93134 v -0.93134"
       style="fill:#231f20;fill-opacity:1;fill-rule:evenodd;stroke:none;stroke-width:0.352777" />
    <path
       id="path22405"
       d="m 88.828355,162.81586 h 5.453062"
       style="fill:none;stroke:#231f20;stroke-width:0.179917;stroke-linecap:square;stroke-linejoin:miter;stroke-miterlimit:3.86;stroke-dasharray:none;stroke-opacity:1" />
    <path
       id="path22406"
       d="m 107.69844,171.40953 -3.25173,0.93133 3.25173,0.93134 v -0.93134 z"
       style="fill:none;stroke:#231f20;stroke-width:0.34925;stroke-linecap:butt;stroke-linejoin:miter;stroke-miterlimit:3.86;stroke-dasharray:none;stroke-opacity:1" />
    <path
       id="path22407"
       d="m 107.69844,171.40953 -3.25173,0.93133 3.25173,0.93134 v -0.93134"
       style="fill:#231f20;fill-opacity:1;fill-rule:evenodd;stroke:none;stroke-width:0.352777" />
    <path
       id="path22408"
       d="m 107.87306,172.34086 h 30.85836"
       style="fill:none;stroke:#231f20;stroke-width:0.179917;stroke-linecap:square;stroke-linejoin:miter;stroke-miterlimit:3.86;stroke-dasharray:none;stroke-opacity:1" />
    <path
       id="path22409"
       d="m 82.301084,171.40953 -3.251729,0.93133 3.251729,0.93134 v -0.93134 z"
       style="fill:none;stroke:#231f20;stroke-width:0.34925;stroke-linecap:butt;stroke-linejoin:miter;stroke-miterlimit:3.86;stroke-dasharray:none;stroke-opacity:1" />
    <path
       id="path22410"
       d="m 82.301084,171.40953 -3.251729,0.93133 3.251729,0.93134 v -0.93134"
       style="fill:#231f20;fill-opacity:1;fill-rule:evenodd;stroke:none;stroke-width:0.352777" />
    <path
       id="path22411"
       d="M 82.478355,172.34086 H 94.281417"
       style="fill:none;stroke:#231f20;stroke-width:0.179917;stroke-linecap:square;stroke-linejoin:miter;stroke-miterlimit:3.86;stroke-dasharray:none;stroke-opacity:1" />
  </g>
</svg>
