<?xml version="1.0" encoding="UTF-8" standalone="no"?>
<!-- Created with Inkscape (http://www.inkscape.org/) -->

<svg
   width="118.26082mm"
   height="71.438515mm"
   viewBox="0 0 118.26082 71.438515"
   version="1.1"
   id="svg1"
   inkscape:version="1.3.2 (091e20e, 2023-11-25, custom)"
   sodipodi:docname="figure15-1.svg"
   xmlns:inkscape="http://www.inkscape.org/namespaces/inkscape"
   xmlns:sodipodi="http://sodipodi.sourceforge.net/DTD/sodipodi-0.dtd"
   xmlns="http://www.w3.org/2000/svg"
   xmlns:svg="http://www.w3.org/2000/svg">
  <sodipodi:namedview
     id="namedview1"
     pagecolor="#ffffff"
     bordercolor="#666666"
     borderopacity="1.0"
     inkscape:showpageshadow="2"
     inkscape:pageopacity="0.0"
     inkscape:pagecheckerboard="0"
     inkscape:deskcolor="#d1d1d1"
     inkscape:document-units="mm"
     inkscape:zoom="0.74920735"
     inkscape:cx="222.90224"
     inkscape:cy="135.47651"
     inkscape:window-width="1920"
     inkscape:window-height="1017"
     inkscape:window-x="1072"
     inkscape:window-y="-8"
     inkscape:window-maximized="1"
     inkscape:current-layer="layer1" />
  <defs
     id="defs1" />
  <g
     inkscape:label="Layer 1"
     inkscape:groupmode="layer"
     id="layer1"
     transform="translate(-45.771789,-112.7125)">
    <path
       id="path17743"
       d="m 49.118769,138.55625 v -3.175 c -1.751542,0 -3.175,1.4224 -3.175,3.175 0,1.7526 1.423458,3.175 3.175,3.175 1.751541,0 3.174999,-1.4224 3.174999,-3.175 0,-1.7526 -1.423458,-3.175 -3.174999,-3.175"
       style="fill:#f8f8f8;fill-opacity:1;fill-rule:nonzero;stroke:none;stroke-width:0.352777" />
    <path
       id="path17744"
       d="m 49.121414,135.37772 c -1.751541,0 -3.175,1.4224 -3.175,3.175 0,1.7526 1.423459,3.175 3.175,3.175 1.751542,0 3.175,-1.4224 3.175,-3.175 0,-1.7526 -1.423458,-3.175 -3.175,-3.175 z m 35.361562,-21.25133 h 79.375004 v 69.85 H 84.482976 Z"
       style="fill:none;stroke:#231f20;stroke-width:0.34925;stroke-linecap:butt;stroke-linejoin:miter;stroke-miterlimit:3.86;stroke-dasharray:none;stroke-opacity:1" />
    <path
       id="path17745"
       d="m 61.818768,170.30625 v -41.275 c 0,-3.50696 2.844271,-6.35 6.35,-6.35 h 47.625002 c 3.50573,0 6.35,2.84304 6.35,6.35 v 41.275 c 0,3.50696 -2.84427,6.35 -6.35,6.35 H 68.168768 c -3.505729,0 -6.35,-2.84304 -6.35,-6.35 z"
       style="fill:#f8f8f8;fill-opacity:1;fill-rule:evenodd;stroke:#231f20;stroke-width:0.34925;stroke-linecap:butt;stroke-linejoin:miter;stroke-miterlimit:3.86;stroke-dasharray:none;stroke-opacity:1" />
    <path
       id="path17746"
       d="m 90.393768,146.59958 v -14.39333 c 0,-3.50696 2.844271,-6.35 6.35,-6.35 h 12.700002 c 3.50573,0 6.35,2.84304 6.35,6.35 v 14.39333 c 0,3.50697 -2.84427,6.35 -6.35,6.35 H 96.743768 c -3.505729,0 -6.35,-2.84303 -6.35,-6.35 z"
       style="fill:#f8f8f8;fill-opacity:1;fill-rule:evenodd;stroke:#231f20;stroke-width:0.34925;stroke-linecap:butt;stroke-linejoin:miter;stroke-miterlimit:3.86;stroke-dasharray:none;stroke-opacity:1" />
    <path
       id="path17747"
       d="m 90.393768,166.91958 v -3.4925 c 0,-3.50696 2.844271,-6.35 6.35,-6.35 h 12.700002 c 3.50573,0 6.35,2.84304 6.35,6.35 v 3.4925 c 0,3.50697 -2.84427,6.35 -6.35,6.35 H 96.743768 c -3.505729,0 -6.35,-2.84303 -6.35,-6.35 z"
       style="fill:#f8f8f8;fill-opacity:1;fill-rule:evenodd;stroke:#231f20;stroke-width:0.34925;stroke-linecap:butt;stroke-linejoin:miter;stroke-miterlimit:3.86;stroke-dasharray:none;stroke-opacity:1" />
    <path
       id="path17748"
       d="m 135.54756,163.25069 h 12.7 v 12.7 h -12.7 z"
       style="fill:#918f8f;fill-opacity:1;fill-rule:evenodd;stroke:#231f20;stroke-width:0.34925;stroke-linecap:butt;stroke-linejoin:miter;stroke-miterlimit:3.86;stroke-dasharray:none;stroke-opacity:1" />
    <path
       id="path17749"
       d="m 106.26877,130.83041 v -0.21166 c 0,-0.87665 0.71173,-1.5875 1.5875,-1.5875 0.87577,0 1.5875,0.71085 1.5875,1.5875 v 0.21166 c 0,0.87666 -0.71173,1.5875 -1.5875,1.5875 -0.87577,0 -1.5875,-0.71084 -1.5875,-1.5875 z"
       style="fill:#f8f8f8;fill-opacity:1;fill-rule:evenodd;stroke:#231f20;stroke-width:0.34925;stroke-linecap:butt;stroke-linejoin:miter;stroke-miterlimit:3.86;stroke-dasharray:none;stroke-opacity:1" />
    <path
       id="path17750"
       d="m 106.26877,137.18041 v -0.21166 c 0,-0.87665 0.71173,-1.5875 1.5875,-1.5875 0.87577,0 1.5875,0.71085 1.5875,1.5875 v 0.21166 c 0,0.87666 -0.71173,1.5875 -1.5875,1.5875 -0.87577,0 -1.5875,-0.71084 -1.5875,-1.5875 z"
       style="fill:#f8f8f8;fill-opacity:1;fill-rule:evenodd;stroke:#231f20;stroke-width:0.34925;stroke-linecap:butt;stroke-linejoin:miter;stroke-miterlimit:3.86;stroke-dasharray:none;stroke-opacity:1" />
    <path
       id="path17751"
       d="m 106.26877,143.53041 v -0.21166 c 0,-0.87665 0.71173,-1.5875 1.5875,-1.5875 0.87577,0 1.5875,0.71085 1.5875,1.5875 v 0.21166 c 0,0.87666 -0.71173,1.5875 -1.5875,1.5875 -0.87577,0 -1.5875,-0.71084 -1.5875,-1.5875 z"
       style="fill:#f8f8f8;fill-opacity:1;fill-rule:evenodd;stroke:#231f20;stroke-width:0.34925;stroke-linecap:butt;stroke-linejoin:miter;stroke-miterlimit:3.86;stroke-dasharray:none;stroke-opacity:1" />
    <path
       id="path17752"
       d="m 106.26877,168.14019 v -0.87136 c 0,-0.87665 0.71173,-1.5875 1.5875,-1.5875 0.87577,0 1.5875,0.71085 1.5875,1.5875 v 0.87136 c 0,0.87666 -0.71173,1.5875 -1.5875,1.5875 -0.87577,0 -1.5875,-0.71084 -1.5875,-1.5875 z"
       style="fill:#f8f8f8;fill-opacity:1;fill-rule:evenodd;stroke:#231f20;stroke-width:0.34925;stroke-linecap:butt;stroke-linejoin:miter;stroke-miterlimit:3.86;stroke-dasharray:none;stroke-opacity:1" />
    <text
       id="text17752"
       xml:space="preserve"
       x="46.207027"
       y="181.27057"
       style="font-size:4.23333px;stroke-width:0.352777"><tspan
         style="font-variant:normal;font-weight:normal;font-stretch:normal;font-size:4.23333px;font-family:'Times New Roman';writing-mode:lr-tb;fill:#231f20;fill-opacity:1;fill-rule:nonzero;stroke:none;stroke-width:0.352777"
         x="46.207027 49.030628 50.208851 51.387074 53.263962 55.38063"
         y="181.27057"
         sodipodi:role="line"
         id="tspan17752">Client</tspan><tspan
         style="font-variant:normal;font-weight:normal;font-stretch:normal;font-size:4.23333px;font-family:'Times New Roman';writing-mode:lr-tb;fill:#231f20;fill-opacity:1;fill-rule:nonzero;stroke:none;stroke-width:0.352777"
         x="87.217445 89.573891 91.450775 92.860512 94.97718 96.8582"
         y="183.00626"
         sodipodi:role="line"
         id="tspan17753">Server</tspan><tspan
         style="font-variant:normal;font-weight:normal;font-stretch:normal;font-size:4.23333px;font-family:'Times New Roman';writing-mode:lr-tb;fill:#231f20;fill-opacity:1;fill-rule:nonzero;stroke:none;stroke-width:0.352777"
         x="45.942444 49.00169 51.118359 52.292446 54.17347 56.054489 57.228577 58.286911 61.110512 62.991535 64.401268 66.282288 67.692024 69.568909 71.685577 73.566597"
         y="115.65392"
         sodipodi:role="line"
         id="tspan17754">Object Reference</tspan><tspan
         style="font-variant:normal;font-weight:normal;font-stretch:normal;font-size:4.23333px;font-family:'Times New Roman';writing-mode:lr-tb;fill:#231f20;fill-opacity:1;fill-rule:nonzero;stroke:none;stroke-width:0.352777"
         x="130.24118 133.29628 134.94167 136.82269 138.1456 139.55533 141.20071 143.31738 145.43405 147.5507 148.72893 149.90715 151.78404"
         y="155.04846"
         sodipodi:role="line"
         id="tspan17755">User-supplied</tspan><tspan
         style="font-variant:normal;font-weight:normal;font-stretch:normal;font-size:4.23333px;font-family:'Times New Roman';writing-mode:lr-tb;fill:#231f20;fill-opacity:1;fill-rule:nonzero;stroke:none;stroke-width:0.352777"
         x="130.24118 131.88655 133.76758 135.17731 137.29398 139.17087 141.28754 142.46576"
         y="159.78261"
         sodipodi:role="line"
         id="tspan17756">servants</tspan></text>
    <path
       id="path17756"
       d="m 128.49377,122.68125 h 12.7 v 12.7 h -12.7 z"
       style="fill:#918f8f;fill-opacity:1;fill-rule:evenodd;stroke:#231f20;stroke-width:0.34925;stroke-linecap:butt;stroke-linejoin:miter;stroke-miterlimit:3.86;stroke-dasharray:none;stroke-opacity:1" />
    <path
       id="path17757"
       d="m 135.54756,129.03125 h 12.7 v 12.7 h -12.7 z"
       style="fill:#918f8f;fill-opacity:1;fill-rule:evenodd;stroke:#231f20;stroke-width:0.34925;stroke-linecap:butt;stroke-linejoin:miter;stroke-miterlimit:3.86;stroke-dasharray:none;stroke-opacity:1" />
    <path
       id="path17758"
       d="m 141.19377,135.38125 h 12.7 v 12.7 h -12.7 z"
       style="fill:#918f8f;fill-opacity:1;fill-rule:evenodd;stroke:#231f20;stroke-width:0.34925;stroke-linecap:butt;stroke-linejoin:miter;stroke-miterlimit:3.86;stroke-dasharray:none;stroke-opacity:1" />
    <text
       id="text17758"
       xml:space="preserve"
       x="94.629913"
       y="134.43933"
       style="font-size:4.23333px;stroke-width:0.352777"><tspan
         style="font-variant:normal;font-weight:700;font-stretch:normal;font-size:4.23333px;font-family:'Times New Roman';writing-mode:lr-tb;fill:#231f20;fill-opacity:1;fill-rule:nonzero;stroke:none;stroke-width:0.352777"
         x="94.629913 97.217865 100.50862"
         y="134.43933"
         sodipodi:role="line"
         id="tspan17758">POA</tspan><tspan
         style="font-variant:normal;font-weight:700;font-stretch:normal;font-size:4.23333px;font-family:'Times New Roman';writing-mode:lr-tb;fill:#231f20;fill-opacity:1;fill-rule:nonzero;stroke:none;stroke-width:0.352777"
         x="96.742447 99.330399 102.62115"
         y="164.51378"
         sodipodi:role="line"
         id="tspan17759">POA</tspan></text>
    <path
       id="path17759"
       d="m 128.05191,130.57641 h -19.05"
       style="fill:#918f8f;fill-opacity:1;fill-rule:evenodd;stroke:#231f20;stroke-width:0.34925;stroke-linecap:butt;stroke-linejoin:miter;stroke-miterlimit:3.86;stroke-dasharray:none;stroke-opacity:1" />
    <path
       id="path17760"
       d="m 135.25123,137.53319 -25.57727,0.22225"
       style="fill:#918f8f;fill-opacity:1;fill-rule:evenodd;stroke:#231f20;stroke-width:0.34925;stroke-linecap:butt;stroke-linejoin:miter;stroke-miterlimit:3.86;stroke-dasharray:none;stroke-opacity:1" />
    <path
       id="path17761"
       d="M 140.7625,143.26583 H 109.89356"
       style="fill:#918f8f;fill-opacity:1;fill-rule:evenodd;stroke:#231f20;stroke-width:0.34925;stroke-linecap:butt;stroke-linejoin:miter;stroke-miterlimit:3.86;stroke-dasharray:none;stroke-opacity:1" />
    <path
       id="path17762"
       d="M 135.25123,168.57764 H 109.62898"
       style="fill:#918f8f;fill-opacity:1;fill-rule:evenodd;stroke:#231f20;stroke-width:0.34925;stroke-linecap:butt;stroke-linejoin:miter;stroke-miterlimit:3.86;stroke-dasharray:none;stroke-opacity:1" />
    <path
       id="path17763"
       d="M 75.280768,138.76791 H 52.262018"
       style="fill:#918f8f;fill-opacity:1;fill-rule:evenodd;stroke:#231f20;stroke-width:0.34925;stroke-linecap:butt;stroke-linejoin:miter;stroke-miterlimit:3.86;stroke-dasharray:none;stroke-opacity:1" />
    <text
       id="text17763"
       xml:space="preserve"
       x="77.262497"
       y="140.40128"
       style="font-size:4.23333px;stroke-width:0.352777"><tspan
         style="font-variant:normal;font-weight:normal;font-stretch:normal;font-size:4.9389px;font-family:'Times New Roman';writing-mode:lr-tb;fill:#231f20;fill-opacity:1;fill-rule:nonzero;stroke:none;stroke-width:0.352777"
         x="77.262497"
         y="140.40128"
         id="tspan17763">?</tspan><tspan
         style="font-variant:normal;font-weight:700;font-stretch:normal;font-size:4.9389px;font-family:'Times New Roman';writing-mode:lr-tb;fill:#231f20;fill-opacity:1;fill-rule:nonzero;stroke:none;stroke-width:0.352777"
         x="66.902405 70.742996 74.310738"
         y="128.93614"
         sodipodi:role="line"
         id="tspan17764">ORB</tspan></text>
    <text
       id="text17764"
       xml:space="preserve"
       x="100.19443"
       y="119.01236"
       style="font-size:4.23333px;stroke-width:0.352777"><tspan
         style="font-variant:normal;font-weight:normal;font-stretch:normal;font-size:4.23333px;font-family:'Times New Roman';writing-mode:lr-tb;fill:#231f20;fill-opacity:1;fill-rule:nonzero;stroke:none;stroke-width:0.352777"
         x="100.19443 103.24954 105.36621 106.54443 108.42545 110.30234 111.48056 112.53889 113.94863"
         y="119.01236"
         sodipodi:role="line"
         id="tspan17765">Object Id</tspan></text>
    <path
       id="path17765"
       d="m 106.89318,127.04158 1.01865,1.76036 1.016,-1.76036 h -1.016 z"
       style="fill:none;stroke:#231f20;stroke-width:0.34925;stroke-linecap:butt;stroke-linejoin:miter;stroke-miterlimit:3.86;stroke-dasharray:none;stroke-opacity:1" />
    <path
       id="path17766"
       d="m 106.89318,127.04158 1.01865,1.76036 1.016,-1.76036 h -1.016"
       style="fill:#231f20;fill-opacity:1;fill-rule:evenodd;stroke:none;stroke-width:0.352777" />
    <path
       id="path17767"
       d="m 107.91183,126.86519 v -6.52991"
       style="fill:#918f8f;fill-opacity:1;fill-rule:evenodd;stroke:#231f20;stroke-width:0.34925;stroke-linecap:butt;stroke-linejoin:miter;stroke-miterlimit:3.86;stroke-dasharray:none;stroke-opacity:1" />
    <path
       id="path17768"
       d="m 50.835914,133.59972 0.201084,2.02494 1.653645,-1.18533 -0.926041,-0.4198 z"
       style="fill:none;stroke:#231f20;stroke-width:0.34925;stroke-linecap:butt;stroke-linejoin:miter;stroke-miterlimit:3.86;stroke-dasharray:none;stroke-opacity:1" />
    <path
       id="path17769"
       d="m 50.835914,133.59972 0.201084,2.02494 1.653645,-1.18533 -0.926041,-0.4198"
       style="fill:#231f20;fill-opacity:1;fill-rule:evenodd;stroke:none;stroke-width:0.352777" />
    <path
       id="path17770"
       d="m 51.838685,133.86078 7.786688,-17.22967"
       style="fill:#918f8f;fill-opacity:1;fill-rule:evenodd;stroke:#231f20;stroke-width:0.34925;stroke-linecap:butt;stroke-linejoin:miter;stroke-miterlimit:3.86;stroke-dasharray:none;stroke-opacity:1" />
  </g>
</svg>
