<?xml version="1.0" encoding="UTF-8" standalone="no"?>
<!-- Created with Inkscape (http://www.inkscape.org/) -->

<svg
   width="141.91536mm"
   height="177.66501mm"
   viewBox="0 0 141.91536 177.66501"
   version="1.1"
   id="svg1"
   inkscape:version="1.3.2 (091e20e, 2023-11-25, custom)"
   sodipodi:docname="figure14-2.svg"
   xmlns:inkscape="http://www.inkscape.org/namespaces/inkscape"
   xmlns:sodipodi="http://sodipodi.sourceforge.net/DTD/sodipodi-0.dtd"
   xmlns="http://www.w3.org/2000/svg"
   xmlns:svg="http://www.w3.org/2000/svg">
  <sodipodi:namedview
     id="namedview1"
     pagecolor="#ffffff"
     bordercolor="#666666"
     borderopacity="1.0"
     inkscape:showpageshadow="2"
     inkscape:pageopacity="0.0"
     inkscape:pagecheckerboard="0"
     inkscape:deskcolor="#d1d1d1"
     inkscape:document-units="mm"
     inkscape:zoom="0.74920735"
     inkscape:cx="268.28354"
     inkscape:cy="335.68811"
     inkscape:window-width="1920"
     inkscape:window-height="1017"
     inkscape:window-x="1072"
     inkscape:window-y="-8"
     inkscape:window-maximized="1"
     inkscape:current-layer="layer1" />
  <defs
     id="defs1" />
  <g
     inkscape:label="Layer 1"
     inkscape:groupmode="layer"
     id="layer1"
     transform="translate(-33.866571,-59.795832)">
    <text
       id="text11458"
       xml:space="preserve"
       x="33.616974"
       y="62.107319"
       style="font-size:4.23333px;stroke-width:0.352777"><tspan
         style="font-variant:normal;font-weight:normal;font-stretch:normal;font-size:3.175px;font-family:Arial;writing-mode:lr-tb;fill:#231f20;fill-opacity:1;fill-rule:nonzero;stroke:none;stroke-width:0.352777"
         x="33.616974 35.940346 37.738686 39.537025 41.335365 42.951805 43.687679 44.60545 46.399658 47.491062 49.107502 50.025276 51.819481 52.910889 53.824528 56.1479 57.946239 60.62101 62.41935 64.21769 66.011894 67.810234 69.608574 70.522217 71.435852 73.759224 74.672867 75.590637 77.914009 79.708221 81.506561 83.304901 84.921333 85.661346 86.574982 88.369186 89.460594"
         y="62.107319"
         sodipodi:role="line"
         id="tspan11459">Repository or ComponentIR::Repository</tspan></text>
    <text
       id="text11459"
       xml:space="preserve"
       transform="scale(0.97026932,1.0306417)"
       x="39.945805"
       y="72.001389"
       style="font-size:4.36306px;stroke-width:0.363588"><tspan
         style="font-variant:normal;font-weight:normal;font-stretch:normal;font-size:3.27229px;font-family:Arial;writing-mode:lr-tb;fill:#231f20;fill-opacity:1;fill-rule:nonzero;stroke:none;stroke-width:0.363588"
         x="39.945805 42.347725 44.19981 46.056026 47.730343 48.677055 50.533272 52.385357 53.332069 55.73399 57.586071"
         y="72.001389"
         sodipodi:role="line"
         id="tspan11460">ConstantDef</tspan><tspan
         style="font-variant:normal;font-weight:normal;font-stretch:normal;font-size:3.27229px;font-family:Arial;writing-mode:lr-tb;fill:#231f20;fill-opacity:1;fill-rule:nonzero;stroke:none;stroke-width:0.363588"
         x="39.883793 41.735878 43.410194 45.262276 47.118492 48.974712 50.830929 51.777641 54.175426 56.031647"
         y="75.273682"
         sodipodi:role="line"
         id="tspan11461">TypedefDef</tspan><tspan
         style="font-variant:normal;font-weight:normal;font-stretch:normal;font-size:3.27229px;font-family:Arial;writing-mode:lr-tb;fill:#231f20;fill-opacity:1;fill-rule:nonzero;stroke:none;stroke-width:0.363588"
         x="39.945805 42.165825 43.840141 45.510323 47.366539 49.222759 50.169472 50.930149 52.786366 54.642582 57.040367 58.896587"
         y="78.545967"
         sodipodi:role="line"
         id="tspan11462">ExceptionDef</tspan></text>
    <text
       id="text11462"
       xml:space="preserve"
       x="38.759815"
       y="84.321739"
       style="font-size:4.23333px;stroke-width:0.352777"><tspan
         style="font-variant:normal;font-weight:normal;font-stretch:normal;font-size:3.175px;font-family:Arial;writing-mode:lr-tb;fill:#231f20;fill-opacity:1;fill-rule:nonzero;stroke:none;stroke-width:0.352777"
         x="38.759815 39.673454 41.823193 43.443764 44.357403 45.271046 46.184685 47.983025 48.896664 50.695004 51.782272 52.695915 54.494255 56.114826 57.909031 60.236538 62.030743"
         y="84.321739"
         sodipodi:role="line"
         id="tspan11463">[Ext]InterfaceDef</tspan><tspan
         style="font-variant:normal;font-weight:normal;font-stretch:normal;font-size:3.175px;font-family:Arial;writing-mode:lr-tb;fill:#231f20;fill-opacity:1;fill-rule:nonzero;stroke:none;stroke-width:0.352777"
         x="49.190186 51.513557 53.311897 55.110237 56.726677 57.644447 59.438656 61.236996 62.150635 64.474007 66.272346"
         y="140.32175"
         sodipodi:role="line"
         id="tspan11464">ConstantDef</tspan><tspan
         style="font-variant:normal;font-weight:normal;font-stretch:normal;font-size:3.175px;font-family:Arial;writing-mode:lr-tb;fill:#231f20;fill-opacity:1;fill-rule:nonzero;stroke:none;stroke-width:0.352777"
         x="49.132305 50.926514 52.547085 54.34129 56.139629 57.937969 59.736309 60.649948 62.973324 64.77166"
         y="143.49675"
         sodipodi:role="line"
         id="tspan11465">TypedefDef</tspan><tspan
         style="font-variant:normal;font-weight:normal;font-stretch:normal;font-size:3.175px;font-family:Arial;writing-mode:lr-tb;fill:#231f20;fill-opacity:1;fill-rule:nonzero;stroke:none;stroke-width:0.352777"
         x="49.190186 51.339924 52.960495 54.576935 56.375275 58.173615 59.087254 59.823128 61.621468 63.419807 65.743179 67.537384"
         y="146.67175"
         sodipodi:role="line"
         id="tspan11466">ExceptionDef</tspan><tspan
         style="font-variant:normal;font-weight:normal;font-stretch:normal;font-size:3.175px;font-family:Arial;writing-mode:lr-tb;fill:#231f20;fill-opacity:1;fill-rule:nonzero;stroke:none;stroke-width:0.352777"
         x="49.190186 50.103825 52.253563 53.874138 54.787777 55.701416 57.851154 58.764793 59.682568 60.76984 61.505711 63.30405 65.102394 66.016029 67.814369 70.137741 71.931946"
         y="149.84676"
         sodipodi:role="line"
         id="tspan11467">[Ext]AttributeDef</tspan><tspan
         style="font-variant:normal;font-weight:normal;font-stretch:normal;font-size:3.175px;font-family:Arial;writing-mode:lr-tb;fill:#231f20;fill-opacity:1;fill-rule:nonzero;stroke:none;stroke-width:0.352777"
         x="49.190186 51.691322 53.489662 55.288002 56.375275 58.173615 59.087254 59.823128 61.621468 63.419807 65.743179 67.537384"
         y="153.02174"
         sodipodi:role="line"
         id="tspan11468">OperationDef</tspan><tspan
         style="font-variant:normal;font-weight:normal;font-stretch:normal;font-size:3.175px;font-family:Arial;writing-mode:lr-tb;fill:#231f20;fill-opacity:1;fill-rule:nonzero;stroke:none;stroke-width:0.352777"
         x="97.121109 99.270851 101.06506 102.68562 104.48396 105.39761 106.13348 107.93182 108.84546 110.6438 111.73107 112.64471 114.44305 116.05949 117.85783 118.77147 119.86287 121.65708 123.45542 125.25376 126.87433 127.61021 128.52385 130.32219 131.40945 133.03003 133.94366 134.67953 136.30011 137.21375 138.30103 140.09937 141.89771 142.98497 144.78331 146.39975 148.19809 149.99643 150.91008 152.70842"
         y="62.107533"
         sodipodi:role="line"
         id="tspan11469">Each interface repository is represented</tspan><tspan
         style="font-variant:normal;font-weight:normal;font-stretch:normal;font-size:3.175px;font-family:Arial;writing-mode:lr-tb;fill:#231f20;fill-opacity:1;fill-rule:nonzero;stroke:none;stroke-width:0.352777"
         x="97.121109 98.915314 100.53589 101.44952 103.24786 104.16151 105.95985 106.69572 108.49406 110.28826 112.0866 112.82247 113.73611 114.82752 116.62173 118.42007 119.3337 120.24734 121.33875 123.13709 124.9313 126.72964 128.3502 129.08607 129.99973 131.79807 132.88533 134.50591 135.41954 137.21788 139.01208 139.75209 141.54631 143.16687 144.08052"
         y="65.282532"
         sodipodi:role="line"
         id="tspan11470">by a global root repository object.</tspan><tspan
         style="font-variant:normal;font-weight:normal;font-stretch:normal;font-size:3.175px;font-family:Arial;writing-mode:lr-tb;fill:#231f20;fill-opacity:1;fill-rule:nonzero;stroke:none;stroke-width:0.352777"
         x="97.059097 99.031067 100.82941 102.62361 103.54139 105.86476 107.65897 109.45731 111.25565 112.87209 113.61209 114.52573 116.32407 117.41134 119.03191 119.94556 120.85919 123.18256 124.09621 125.89455 127.69289 128.42876 130.2271 131.84354 132.75717 133.67494 134.76222 136.56056 138.35477 139.44617 141.24451 142.86095 144.65929 146.45763 147.37128 148.98772 149.90549 150.81912 152.61746 154.41167 155.3253 156.94588 158.74422 160.53842 162.159 163.07263 164.87097 166.66931 167.58296 169.20352 170.11717"
         y="73.946785"
         sodipodi:role="line"
         id="tspan11471">The Repository IR object represents the constants, </tspan><tspan
         style="font-variant:normal;font-weight:normal;font-stretch:normal;font-size:3.175px;font-family:Arial;writing-mode:lr-tb;fill:#231f20;fill-opacity:1;fill-rule:nonzero;stroke:none;stroke-width:0.352777"
         x="97.121109 98.034744 99.651184 101.44952 103.24786 105.0462 106.84041 107.75405 109.37463 110.28826 111.2019 113.00024 114.62081 116.23725 118.03559 119.83393 120.74757 121.48344 123.28178 125.08012 126.69656 127.61021 128.52797 129.26385 131.06219 131.97583 133.77003 134.86143 135.77509 137.57343 139.18987 140.9882 142.60876 143.52242 144.43605 146.05663 147.85083 148.59084 150.38504 152.18338 153.09702 154.71759 156.51593 158.31013 159.93071 160.84435"
         y="77.121788"
         sodipodi:role="line"
         id="tspan11472">typedefs, exceptions, interfaces, valuetypes, </tspan><tspan
         style="font-variant:normal;font-weight:normal;font-stretch:normal;font-size:3.175px;font-family:Arial;writing-mode:lr-tb;fill:#231f20;fill-opacity:1;fill-rule:nonzero;stroke:none;stroke-width:0.352777"
         x="97.78257 98.696205 100.49454 102.29288 103.20653 104.82296 106.44353 108.24187 110.04021 111.83442 112.74806 114.5464 115.46004 116.37368 118.17202 119.08566 121.76456 123.55877 125.35711 127.15545 127.89132 129.68967 130.6033"
         y="84.925301"
         sodipodi:role="line"
         id="tspan11473">the scope of a module. </tspan><tspan
         style="font-variant:normal;font-weight:normal;font-stretch:normal;font-size:3.175px;font-family:Arial;writing-mode:lr-tb;fill:#231f20;fill-opacity:1;fill-rule:nonzero;stroke:none;stroke-width:0.352777"
         x="95.347572 97.31955 99.117889 100.91622 101.82986 104.50464 106.30298 108.09718 109.89552 110.63139 112.42973 113.34338 114.25701 116.58452 117.49816 119.29237 121.09071 121.82658 123.62492 125.24549 126.15913 127.07277 128.16003 129.95837 131.75671 132.84399 134.64233 136.26291 138.05711 139.85545 140.76909 142.38966 143.3033 144.21693 146.01527 147.81361 148.72726 150.34784 152.14204 153.94038 155.56096 156.47459 158.2688 160.06714 160.98077 162.60135 163.51498"
         y="114.70331"
         sodipodi:role="line"
         id="tspan11474">The Module IR object represents the constants, </tspan><tspan
         style="font-variant:normal;font-weight:normal;font-stretch:normal;font-size:3.175px;font-family:Arial;writing-mode:lr-tb;fill:#231f20;fill-opacity:1;fill-rule:nonzero;stroke:none;stroke-width:0.352777"
         x="95.409584 96.323227 97.943794 99.737999 101.53634 103.33468 105.12889 106.04666 107.6631 108.57674 109.49451 111.28872 112.90929 114.52986 116.32407 118.12241 119.03605 119.77192 121.57026 123.3686 124.98504 125.90282 126.81645 127.55232 129.35066 130.2643 132.06264 133.14992 134.06355 135.86189 137.47833 139.27667 140.89725 141.81088 142.72453 144.34509 146.14343 146.87932 148.67352 150.47186 151.3855 153.00607 154.80441 156.59862 158.21919 159.13283"
         y="117.87831"
         sodipodi:role="line"
         id="tspan11475">typedefs, exceptions, interfaces, valuetypes, </tspan><tspan
         style="font-variant:normal;font-weight:normal;font-stretch:normal;font-size:3.175px;font-family:Arial;writing-mode:lr-tb;fill:#231f20;fill-opacity:1;fill-rule:nonzero;stroke:none;stroke-width:0.352777"
         x="95.409584 98.084358 99.882698 101.68104 103.47524 104.21111 106.00945 107.63003 108.54366 110.342 112.13622 113.05399 113.78986 115.58406 117.3824 119.18074 120.09438 122.41776 123.15363 124.06727 125.86561 126.60148 128.39983 129.31346 130.2271 132.02544 133.82378 134.73741 136.35799 137.97443 139.77277 141.57111 143.36531 144.28308 146.07729 146.99094 147.90871 148.82234 150.61655 152.41489 153.32854 156.00743 157.80164 159.59998 161.39832 162.13419 163.93253"
         y="124.69059"
         sodipodi:role="line"
         id="tspan11476">modules defined within the scope of the module.</tspan><tspan
         style="font-variant:normal;font-weight:normal;font-stretch:normal;font-size:3.175px;font-family:Arial;writing-mode:lr-tb;fill:#231f20;fill-opacity:1;fill-rule:nonzero;stroke:none;stroke-width:0.352777"
         x="94.901093 97.050827 98.845032 99.76281 100.67645 102.47478 103.38843 105.18263 106.27404 107.18768 108.98602 110.60246 112.40079 113.31444 114.22807 116.55558 117.46922 119.26343 121.06177 121.79764 123.59598 125.21655 126.13019 127.04383 128.13524 129.92944 131.72778 132.81505 134.61339 136.23396 138.02817 139.82651 140.74016 142.36072 143.27437 144.89494 146.68915 148.48749 150.10805 151.0217 152.82004 154.61424 155.53201 157.14845 158.06209"
         y="138.25133"
         sodipodi:role="line"
         id="tspan11477">An Interface IR object represents constants, </tspan><tspan
         style="font-variant:normal;font-weight:normal;font-stretch:normal;font-size:3.175px;font-family:Arial;writing-mode:lr-tb;fill:#231f20;fill-opacity:1;fill-rule:nonzero;stroke:none;stroke-width:0.352777"
         x="95.078857 95.992493 97.608932 99.407272 101.20561 102.99982 104.79816 105.7118 107.33237 108.24601 109.15965 110.95799 112.57856 114.195 115.99334 117.79168 118.70532 119.44119 121.23953 123.03787 124.65431 125.56795 126.48573 128.27992 129.19357 130.11134 131.19861 131.93449 133.73283 135.53117 136.44481 138.24315 139.85959 140.77322 141.69099 143.4852 145.28354 147.08188 147.99553 149.78973 151.58807 153.38641 154.47368 156.27202 157.18565 157.92152 159.71986 161.5182 163.13464"
         y="141.42633"
         sodipodi:role="line"
         id="tspan11478">typedefs, exceptions, attributes, and operations </tspan><tspan
         style="font-variant:normal;font-weight:normal;font-stretch:normal;font-size:3.175px;font-family:Arial;writing-mode:lr-tb;fill:#231f20;fill-opacity:1;fill-rule:nonzero;stroke:none;stroke-width:0.352777"
         x="95.078857 96.873062 98.671402 99.585037 100.32092 102.11926 103.91759 105.7118 106.62957 108.95294 109.68882 110.60246 112.40079 113.13667 114.93501 115.84865 117.64285 118.73426 119.6479 120.38377 122.18211 123.98045 125.77466 126.86607 127.60194 128.51558 130.31392 132.10812 133.02589 134.8201 136.44067 137.35431 138.26794 140.06628 141.86462 142.77827 143.51414 145.31248 146.22612 148.02446 149.11174 150.02538 151.82372 153.44429 155.23849"
         y="144.60133"
         sodipodi:role="line"
         id="tspan11479">defined within or inherited by the interface.</tspan><tspan
         style="font-variant:normal;font-weight:normal;font-stretch:normal;font-size:3.175px;font-family:Arial;writing-mode:lr-tb;fill:#231f20;fill-opacity:1;fill-rule:nonzero;stroke:none;stroke-width:0.352777"
         x="95.409584 97.910721 99.709061 101.50327 102.59467 104.38888 105.30666 106.04253 107.83673 109.63507 110.54871 111.46648 113.78986 114.7035 116.50184 118.29604 119.03191 120.83025 122.45083 123.36446 124.98504 125.89868 126.98595 128.78429 129.69794 131.49628 132.58354 134.38188 136.18022 137.79666 139.595"
         y="152.63757"
         sodipodi:role="line"
         id="tspan11480">Operation IR objects reference </tspan><tspan
         style="font-variant:normal;font-weight:normal;font-stretch:normal;font-size:3.175px;font-family:Arial;writing-mode:lr-tb;fill:#231f20;fill-opacity:1;fill-rule:nonzero;stroke:none;stroke-width:0.352777"
         x="95.740311 97.538651 99.15509 100.77567 102.57401 104.36821 105.28599 106.02186 107.81606 109.6144 110.52804 112.32638 114.12472 114.8606 116.6548 118.27538 119.18901 120.80959"
         y="155.81256"
         sodipodi:role="line"
         id="tspan11481">exception objects.</tspan><tspan
         style="font-variant:normal;font-weight:normal;font-stretch:normal;font-size:3.175px;font-family:Arial;writing-mode:lr-tb;fill:#231f20;fill-opacity:1;fill-rule:nonzero;stroke:none;stroke-width:0.352777"
         x="38.759815 39.673454 41.823193 43.443764 44.357403 45.271046 47.185139 48.983479 49.719353 51.517693 53.311897 55.635269 57.433609"
         y="88.245087"
         sodipodi:role="line"
         id="tspan11482">[Ext]ValueDef</tspan></text>
    <text
       id="text11482"
       xml:space="preserve"
       transform="scale(0.97026932,1.0306417)"
       x="39.470383"
       y="92.559265"
       style="font-size:4.36306px;stroke-width:0.363588"><tspan
         style="font-variant:normal;font-weight:normal;font-stretch:normal;font-size:3.27229px;font-family:Arial;writing-mode:lr-tb;fill:#231f20;fill-opacity:1;fill-rule:nonzero;stroke:none;stroke-width:0.363588"
         x="39.470383 41.442356 43.298573 44.063385 45.915466 47.771683 49.991703 51.847919 53.518105 55.920025 57.776241"
         y="92.559265"
         sodipodi:role="line"
         id="tspan11483">ValueBoxDef</tspan><tspan
         style="font-variant:normal;font-weight:normal;font-stretch:normal;font-size:3.27229px;font-family:Arial;writing-mode:lr-tb;fill:#231f20;fill-opacity:1;fill-rule:nonzero;stroke:none;stroke-width:0.363588"
         x="39.470383 42.236103 44.088188 45.944405 47.800621 48.565434 50.42165 52.819439 54.675655"
         y="96.365585"
         sodipodi:role="line"
         id="tspan11484">ModuleDef</tspan><tspan
         style="font-variant:normal;font-weight:normal;font-stretch:normal;font-size:3.27229px;font-family:Arial;writing-mode:lr-tb;fill:#231f20;fill-opacity:1;fill-rule:nonzero;stroke:none;stroke-width:0.363588"
         x="44.807526 47.205311 49.061527 50.917744 52.587929 53.534641 55.390858 57.247074 58.193787 60.591572 62.447792"
         y="110.5431"
         sodipodi:role="line"
         id="tspan11485">ConstantDef</tspan><tspan
         style="font-variant:normal;font-weight:normal;font-stretch:normal;font-size:3.27229px;font-family:Arial;writing-mode:lr-tb;fill:#231f20;fill-opacity:1;fill-rule:nonzero;stroke:none;stroke-width:0.363588"
         x="44.745514 46.59346 48.267776 50.123997 51.980213 53.83643 55.692646 56.635227 59.037148 60.893364"
         y="113.81538"
         sodipodi:role="line"
         id="tspan11486">TypedefDef</tspan><tspan
         style="font-variant:normal;font-weight:normal;font-stretch:normal;font-size:3.27229px;font-family:Arial;writing-mode:lr-tb;fill:#231f20;fill-opacity:1;fill-rule:nonzero;stroke:none;stroke-width:0.363588"
         x="44.807526 47.023411 48.697727 50.372044 52.224125 54.080341 55.027054 55.791866 57.643951 59.500168 61.902088 63.758305"
         y="117.08767"
         sodipodi:role="line"
         id="tspan11487">ExceptionDef</tspan></text>
    <text
       id="text11487"
       xml:space="preserve"
       x="44.039078"
       y="132.31363"
       style="font-size:4.23333px;stroke-width:0.352777"><tspan
         style="font-variant:normal;font-weight:normal;font-stretch:normal;font-size:3.175px;font-family:Arial;writing-mode:lr-tb;fill:#231f20;fill-opacity:1;fill-rule:nonzero;stroke:none;stroke-width:0.352777"
         x="44.039078 44.952717 47.102455 48.72303 49.636669 50.550308 51.468082 53.617821 55.412025 57.0326 57.946239 59.037643 60.831852 62.452423 63.366062 64.279701 65.139595 66.053238 66.789108 68.587448 70.203888 72.002228 72.738098 73.651741 74.569511 76.363716 77.277359 79.075699 80.167107 81.080742 82.874947 84.495522 86.293861 88.617233 90.415573"
         y="132.31363"
         sodipodi:role="line"
         id="tspan11488">[Ext][Abstract | local]InterfaceDef</tspan><tspan
         style="font-variant:normal;font-weight:normal;font-stretch:normal;font-size:3.175px;font-family:Arial;writing-mode:lr-tb;fill:#231f20;fill-opacity:1;fill-rule:nonzero;stroke:none;stroke-width:0.352777"
         x="44.981655 45.895294 48.045036 49.665607 50.579247 51.492886 53.406982 55.205322 55.941193 57.739532 59.537872 61.861244 63.655453 64.573227 66.400505 67.256264 68.174042 70.319641 71.940216 73.738556 75.536896 76.450539 78.773911 80.57225 81.485886 82.399529 83.486801 84.404572 86.198776 87.997116 88.732986 90.353561 91.267204 92.003075 93.801414 94.715057 97.038429 98.836769 101.51154 103.30988 105.10822 106.90242 108.70076 110.4991 111.41274 112.32638 114.64976 115.56339 116.48116 118.80454 120.60288 122.39709 124.19543 125.81599 126.55187 127.46551 129.26385 130.35112"
         y="162.37041"
         sodipodi:role="line"
         id="tspan11489">[Ext]ValueDef | EventDef - only in ComponentIR::Repository</tspan></text>
    <text
       id="text11489"
       xml:space="preserve"
       transform="scale(0.97026932,1.0306417)"
       x="45.076241"
       y="120.78787"
       style="font-size:4.36306px;stroke-width:0.363588"><tspan
         style="font-variant:normal;font-weight:normal;font-stretch:normal;font-size:3.27229px;font-family:Arial;writing-mode:lr-tb;fill:#231f20;fill-opacity:1;fill-rule:nonzero;stroke:none;stroke-width:0.363588"
         x="45.076241 47.052349 48.90443 49.669243 51.525459 53.381676 55.597565 57.453781 59.128098 61.525883 63.382099"
         y="120.78787"
         sodipodi:role="line"
         id="tspan11490">ValueBoxDef</tspan><tspan
         style="font-variant:normal;font-weight:normal;font-stretch:normal;font-size:3.27229px;font-family:Arial;writing-mode:lr-tb;fill:#231f20;fill-opacity:1;fill-rule:nonzero;stroke:none;stroke-width:0.363588"
         x="45.076241 47.83783 49.694046 51.550266 53.406483 54.16716 56.023376 58.421162 60.277382"
         y="124.59419"
         sodipodi:role="line"
         id="tspan11491">ModuleDef</tspan></text>
    <text
       id="text11491"
       xml:space="preserve"
       x="97.116974"
       y="80.8116"
       style="font-size:4.23333px;stroke-width:0.352777"><tspan
         style="font-variant:normal;font-weight:normal;font-stretch:normal;font-size:3.175px;font-family:Arial;writing-mode:lr-tb;fill:#231f20;fill-opacity:1;fill-rule:nonzero;stroke:none;stroke-width:0.352777"
         x="97.116974 98.737549 100.53589 101.27176 103.0701 104.8643 105.77795 107.57629 109.37463 110.99107 112.78941 114.40997 115.32362 117.12196 118.91616 120.7145 121.62814 124.30704 126.10125 127.89959 129.69794 130.43381 132.23215 133.84859 134.76222 135.67999 137.4742 139.27254 140.18617 141.09982 142.89816 143.98956 145.78377 146.6974 148.49574 150.29408 151.20773 151.9436 153.74194 155.54028 157.33449 158.24812 160.04646 161.8448 162.75844 164.37901 165.11488 166.90909"
         y="80.8116"
         sodipodi:role="line"
         id="tspan11492">value boxes and modules that are defined outside</tspan><tspan
         style="font-variant:normal;font-weight:normal;font-stretch:normal;font-size:3.175px;font-family:Arial;writing-mode:lr-tb;fill:#231f20;fill-opacity:1;fill-rule:nonzero;stroke:none;stroke-width:0.352777"
         x="95.405449 97.026024 98.824364 99.560234 101.35857 103.15278 104.07056 105.86476 107.6631 109.28368 111.07788 112.69845 113.61209 114.52573 116.32407 117.94464 119.73885 121.53719 122.45083 123.36446 124.98504 126.78338 128.58173 130.19817 131.1118 132.02957 133.64601 135.44435 138.11913 139.91747 141.71581 143.51001 145.30835 147.10669 148.02032 149.6409 150.55453 151.46819 153.26653 155.06073 157.73962 159.53796 161.1544 162.06805 163.86639 165.66473 167.45894 168.37671 170.17091 171.08455 172.88289 174.68123 175.76851"
         y="121.56812"
         sodipodi:role="line"
         id="tspan11493">value boxes, eventtypes, components, homes and other </tspan><tspan
         style="font-variant:normal;font-weight:normal;font-stretch:normal;font-size:3.175px;font-family:Arial;writing-mode:lr-tb;fill:#231f20;fill-opacity:1;fill-rule:nonzero;stroke:none;stroke-width:0.352777"
         x="50.029411 52.352783 54.151123 55.949463 57.565899 58.479538 60.277878 62.076218 62.989861 65.313232 67.111572"
         y="170.59361"
         sodipodi:role="line"
         id="tspan11494">ConstantDef</tspan><tspan
         style="font-variant:normal;font-weight:normal;font-stretch:normal;font-size:3.175px;font-family:Arial;writing-mode:lr-tb;fill:#231f20;fill-opacity:1;fill-rule:nonzero;stroke:none;stroke-width:0.352777"
         x="49.971531 51.761604 53.382175 55.180515 56.974724 58.773064 60.571404 61.485043 63.808414 65.60675"
         y="173.76862"
         sodipodi:role="line"
         id="tspan11495">TypedefDef</tspan><tspan
         style="font-variant:normal;font-weight:normal;font-stretch:normal;font-size:3.175px;font-family:Arial;writing-mode:lr-tb;fill:#231f20;fill-opacity:1;fill-rule:nonzero;stroke:none;stroke-width:0.352777"
         x="50.029411 52.17915 53.799721 55.416161 57.2145 59.01284 59.926479 60.662354 62.460693 64.254898 66.582405 68.37661"
         y="176.9436"
         sodipodi:role="line"
         id="tspan11496">ExceptionDef</tspan><tspan
         style="font-variant:normal;font-weight:normal;font-stretch:normal;font-size:3.175px;font-family:Arial;writing-mode:lr-tb;fill:#231f20;fill-opacity:1;fill-rule:nonzero;stroke:none;stroke-width:0.352777"
         x="50.029411 50.94305 53.092789 54.71336 55.626999 56.540642 58.69038 59.604019 60.521793 61.609066 62.344936 64.14328 65.937485 66.855255 68.64946 70.976967 72.771172"
         y="180.11861"
         sodipodi:role="line"
         id="tspan11497">[Ext]AttributeDef</tspan><tspan
         style="font-variant:normal;font-weight:normal;font-stretch:normal;font-size:3.175px;font-family:Arial;writing-mode:lr-tb;fill:#231f20;fill-opacity:1;fill-rule:nonzero;stroke:none;stroke-width:0.352777"
         x="50.029411 52.530548 54.328888 56.127228 57.2145 59.01284 59.926479 60.662354 62.460693 64.254898 66.582405 68.37661"
         y="183.29361"
         sodipodi:role="line"
         id="tspan11498">OperationDef</tspan><tspan
         style="font-variant:normal;font-weight:normal;font-stretch:normal;font-size:3.175px;font-family:Arial;writing-mode:lr-tb;fill:#231f20;fill-opacity:1;fill-rule:nonzero;stroke:none;stroke-width:0.352777"
         x="96.24881 98.749947 100.54415 102.34249 103.4339 105.2281 106.14175 106.88175 108.67596 110.4743 111.38794 112.30157 114.62908 115.54272 117.33693 119.13527 119.87114 121.66948 123.29005 124.20369 125.82426 126.73791 127.82518 129.62352 130.53716 132.33549 133.42278 135.22112 137.01532 138.63588 140.43422"
         y="182.90912"
         sodipodi:role="line"
         id="tspan11499">Operation IR objects reference </tspan><tspan
         style="font-variant:normal;font-weight:normal;font-stretch:normal;font-size:3.175px;font-family:Arial;writing-mode:lr-tb;fill:#231f20;fill-opacity:1;fill-rule:nonzero;stroke:none;stroke-width:0.352777"
         x="96.579536 98.729279 100.34572 101.96629 103.76463 105.55884 106.47661 107.21248 109.00669 110.80503 113.1284 114.92674 115.84038 116.75402 118.55236 120.17293 121.78937 123.58771 125.38605 126.29969 127.03556 128.83391 130.63225 131.54588 133.34009 135.13843 135.8743 137.67264 139.29321 140.20685 141.82742"
         y="186.08412"
         sodipodi:role="line"
         id="tspan11500">ExceptionDef exception objects.</tspan><tspan
         style="font-variant:normal;font-weight:normal;font-stretch:normal;font-size:3.175px;font-family:Arial;writing-mode:lr-tb;fill:#231f20;fill-opacity:1;fill-rule:nonzero;stroke:none;stroke-width:0.352777"
         x="95.856071 98.005806 98.919449 100.82941 102.62775 103.36362 105.16196 106.95617 107.87394 109.49038 111.28872 113.08706 114.00069 114.91434 117.23771 118.15135 119.94969 121.74803 122.4839 124.28224 125.89868 126.81232 127.73009 128.81737 130.61571 132.40991 133.50131 135.29965 136.91609 138.71443 140.51277 141.42641 143.04285 143.96063 145.57707 147.37541 149.17375 150.79018 151.70796 153.50217 155.30051 156.21414 157.83472 158.74835"
         y="168.92134"
         sodipodi:role="line"
         id="tspan11501">A Valuetype IR object represents constants, </tspan><tspan
         style="font-variant:normal;font-weight:normal;font-stretch:normal;font-size:3.175px;font-family:Arial;writing-mode:lr-tb;fill:#231f20;fill-opacity:1;fill-rule:nonzero;stroke:none;stroke-width:0.352777"
         x="96.033836 96.947479 98.563911 100.36225 102.16059 103.9548 105.75314 106.66678 108.28735 109.20099 110.11463 111.91297 113.53355 115.14998 116.94832 118.74666 119.6603 120.39617 122.19451 123.99285 125.60929 126.52293 127.4407 129.23491 130.14854 131.06633 132.15359 132.88947 134.68781 136.48615 137.39978 139.19398 140.81456 141.72821 142.64598 144.44019 146.23853 148.03687 148.9505 150.74471 152.54305 154.34138 155.42867 157.22701 158.14064 158.87651 160.67485 162.47319 164.08963"
         y="172.09633"
         sodipodi:role="line"
         id="tspan11502">typedefs, exceptions, attributes, and operations </tspan><tspan
         style="font-variant:normal;font-weight:normal;font-stretch:normal;font-size:3.175px;font-family:Arial;writing-mode:lr-tb;fill:#231f20;fill-opacity:1;fill-rule:nonzero;stroke:none;stroke-width:0.352777"
         x="96.033836 97.828041 99.626381 100.54002 101.27589 103.07423 104.87257 106.66678 107.58042 109.90792 110.6438 111.55743 113.35577 114.09165 115.88999 116.80363 118.59783 119.68924 120.60288 121.33875 123.13709 124.93543 126.72964 127.82104 128.55692 129.47055 131.26889 133.0631 133.98088 135.77509 137.39565 138.3093 139.22293 141.02127 142.81961 143.73325 144.46912 146.26746 147.18111 148.97945 150.06671 150.98035 152.77869 154.39926 156.19347"
         y="175.27133"
         sodipodi:role="line"
         id="tspan11503">defined within or inherited by the interface.</tspan><tspan
         style="font-variant:normal;font-weight:normal;font-stretch:normal;font-size:3.175px;font-family:Arial;writing-mode:lr-tb;fill:#231f20;fill-opacity:1;fill-rule:nonzero;stroke:none;stroke-width:0.352777"
         x="50.029411 51.943504 53.737709 54.473583 56.271923 58.070263 60.745033 62.543373 65.218147 67.016487 68.814827 69.9021 72.225471 74.023811"
         y="186.98709"
         sodipodi:role="line"
         id="tspan11504">ValueMemberDef</tspan><tspan
         style="font-variant:normal;font-weight:normal;font-stretch:normal;font-size:3.175px;font-family:Arial;writing-mode:lr-tb;fill:#231f20;fill-opacity:1;fill-rule:nonzero;stroke:none;stroke-width:0.352777"
         x="43.555386 45.878757 47.677097 50.351871 52.150211 53.948551 55.746891 57.541096 59.339436 60.253075 62.576447 64.374786 65.288429 66.202065 67.293472 68.207108 70.005447 71.79966 72.53553 74.156105 75.06974 75.809746 77.603951 78.517593 80.8451 82.639305 85.318214 87.112419 88.910759 90.709099 92.503304 94.301643 95.215279 96.128922 98.456429 99.370064 100.28371 102.60708 104.40542 106.20376 107.99796 109.61854 110.35441 111.26805 113.06639 114.15366"
         y="195.14334"
         sodipodi:role="line"
         id="tspan11505">ComponentDef - only in ComponentIR::Repository</tspan><tspan
         style="font-variant:normal;font-weight:normal;font-stretch:normal;font-size:3.175px;font-family:Arial;writing-mode:lr-tb;fill:#231f20;fill-opacity:1;fill-rule:nonzero;stroke:none;stroke-width:0.352777"
         x="92.437157 94.586899 95.500534 97.823906 99.622246 102.29702 104.09536 105.8937 107.6879 109.48624 111.28458 112.19823 114.5216 116.31994 117.23357 118.14722 119.06085 121.38836 122.302 124.09621 125.89455 126.63042 128.42876 130.04933 130.96297 131.8766 132.96802 134.76222 136.56056 137.64783 139.44617 141.06674 142.86095 144.65929 145.57294 147.1935 148.10715 149.02078 150.81912 152.61746 153.5311 155.32944 156.41672 158.21506 159.8315 160.56737 162.36571 164.16405 165.78462 166.69826 167.61189 169.41023 171.02667 172.82501 174.44559 175.35922"
         y="199.84933"
         sodipodi:role="line"
         id="tspan11506">A ComponentDef IR object represents the provides, uses, </tspan><tspan
         style="font-variant:normal;font-weight:normal;font-stretch:normal;font-size:3.175px;font-family:Arial;writing-mode:lr-tb;fill:#231f20;fill-opacity:1;fill-rule:nonzero;stroke:none;stroke-width:0.352777"
         x="92.614922 94.409126 97.088036 97.823906 98.737549 100.35812 101.27176 102.1854 103.98374 105.78208 107.57629 108.31216 109.05216 110.6686 112.46694 114.26528 115.88172 116.79949 118.62677 120.24734 122.04155 123.83989 125.46046 127.25467 129.93358 131.72778 133.34836 134.26199 136.06033 137.85867 139.65288 140.57065 142.36485 143.2785 144.19627 145.28354 146.01941 147.81775 149.61609 150.52974 152.32394 153.94452"
         y="203.49361"
         sodipodi:role="line"
         id="tspan11507">emits, publishes, consumes and attributes </tspan><tspan
         style="font-variant:normal;font-weight:normal;font-stretch:normal;font-size:3.175px;font-family:Arial;writing-mode:lr-tb;fill:#231f20;fill-opacity:1;fill-rule:nonzero;stroke:none;stroke-width:0.352777"
         x="92.255257 94.404999 95.318634 96.232277 97.31955 98.059555 99.85376 101.6521 102.56573 104.36407 106.68745 108.48579 109.39943 110.31306 111.22671 113.55008 114.46785 116.26206 118.0604 118.79627 120.59461 122.21519 123.12882 124.74526 125.66303 126.75031 128.54865 129.46228 131.26062 132.3479 134.14624 135.94044 137.56102 139.35936 140.27299 142.07133 143.68777 145.30835 147.10669 148.90089 149.81866 150.55453 152.34874 154.14708 155.06073 156.85907 158.65741 159.39328 161.18748 162.80806 163.72169 165.34227"
         y="217.7706"
         sodipodi:role="line"
         id="tspan11508">AttributeDef IR objects reference exception objects </tspan><tspan
         style="font-variant:normal;font-weight:normal;font-stretch:normal;font-size:3.175px;font-family:Arial;writing-mode:lr-tb;fill:#231f20;fill-opacity:1;fill-rule:nonzero;stroke:none;stroke-width:0.352777"
         x="48.921467 49.835106 51.984844 53.605419 54.519058 55.432697 57.582436 58.496075 59.413849 60.501122 61.236996 63.035336 64.833672 65.747314 67.541519 69.869026 71.663231"
         y="216.54633"
         sodipodi:role="line"
         id="tspan11509">[Ext]AttributeDef</tspan><tspan
         style="font-variant:normal;font-weight:normal;font-stretch:normal;font-size:3.175px;font-family:Arial;writing-mode:lr-tb;fill:#231f20;fill-opacity:1;fill-rule:nonzero;stroke:none;stroke-width:0.352777"
         x="48.656883 50.806622 53.485531 54.221401 55.13504 56.755615 59.078987 60.873192"
         y="205.74084"
         sodipodi:role="line"
         id="tspan11510">EmitsDef</tspan><tspan
         style="font-variant:normal;font-weight:normal;font-stretch:normal;font-size:3.175px;font-family:Arial;writing-mode:lr-tb;fill:#231f20;fill-opacity:1;fill-rule:nonzero;stroke:none;stroke-width:0.352777"
         x="48.656883 50.806622 52.604961 54.39917 55.139175 55.875046 57.495621 59.289825 61.088165 62.70874 65.032112 66.826317"
         y="209.43083"
         sodipodi:role="line"
         id="tspan11511">PublishesDef</tspan><tspan
         style="font-variant:normal;font-weight:normal;font-stretch:normal;font-size:3.175px;font-family:Arial;writing-mode:lr-tb;fill:#231f20;fill-opacity:1;fill-rule:nonzero;stroke:none;stroke-width:0.352777"
         x="48.656883 50.980255 52.778595 54.576935 56.193375 57.991714 60.67062 62.464825 64.085396 66.408768 68.207108"
         y="213.12431"
         sodipodi:role="line"
         id="tspan11512">ConsumesDef</tspan><tspan
         style="font-variant:normal;font-weight:normal;font-stretch:normal;font-size:3.175px;font-family:Arial;writing-mode:lr-tb;fill:#231f20;fill-opacity:1;fill-rule:nonzero;stroke:none;stroke-width:0.352777"
         x="92.614922 94.231361 96.029701 97.828041 98.741684 100.54002 101.27589 103.0701 104.86844 106.66678 107.58042 108.31629 110.11463 111.02827 111.94191 113.74025 115.53859 116.45222 118.0728 119.867 122.54591 124.34012 126.13846 127.9368 129.731 131.52934 132.44298"
         y="207.18358"
         sodipodi:role="line"
         id="tspan11513">contained in the component.</tspan><tspan
         style="font-variant:normal;font-weight:normal;font-stretch:normal;font-size:3.175px;font-family:Arial;writing-mode:lr-tb;fill:#231f20;fill-opacity:1;fill-rule:nonzero;stroke:none;stroke-width:0.352777"
         x="48.938004 51.083611 52.175014 53.973354 55.589794 56.325665 58.124004 59.922344 61.538784 63.866291 65.6605"
         y="198.55457"
         sodipodi:role="line"
         id="tspan11514">ProvidesDef</tspan><tspan
         style="font-variant:normal;font-weight:normal;font-stretch:normal;font-size:3.175px;font-family:Arial;writing-mode:lr-tb;fill:#231f20;fill-opacity:1;fill-rule:nonzero;stroke:none;stroke-width:0.352777"
         x="48.938004 51.261375 52.877815 54.676155 56.296726 58.620098 60.418438"
         y="202.4776"
         sodipodi:role="line"
         id="tspan11515">UsesDef</tspan><tspan
         style="font-variant:normal;font-weight:normal;font-stretch:normal;font-size:3.175px;font-family:Arial;writing-mode:lr-tb;fill:#231f20;fill-opacity:1;fill-rule:nonzero;stroke:none;stroke-width:0.352777"
         x="92.614922 94.764664 97.439438 98.175308 99.088943 100.70952 101.62316 103.45457 105.24878 107.04712 108.84546 109.58133 110.3172 111.93777 113.73198 115.53032 117.15089 118.06453 119.86287 121.65708 123.45542 124.36906 125.98963 127.78797 129.58217 131.20274 133.00108 135.67586 137.4742 139.09064 140.00841 141.09569 142.89403 143.80766 145.606 146.69328 148.31384 149.22749 150.14113 151.93947 152.8531 154.65144 156.26788 158.06622 159.86456 160.7782 161.69185 163.49019 165.28439 166.0244 167.8186 169.43918 170.35281 171.97339"
         y="210.87738"
         sodipodi:role="line"
         id="tspan11516">Emits, publishes and consumes refers to event objects.</tspan><tspan
         style="font-variant:normal;font-weight:normal;font-stretch:normal;font-size:3.175px;font-family:Arial;writing-mode:lr-tb;fill:#231f20;fill-opacity:1;fill-rule:nonzero;stroke:none;stroke-width:0.352777"
         x="92.614922 92.614922 94.764664 95.851936 97.650276 99.266716 100.00672 101.80093 103.59927 105.21984 106.13348 107.93182 109.72602 111.52436 112.438 114.23634 115.85278 117.65112 119.27169 120.18533 121.27261 123.07095 123.98458 125.78292 126.87019 128.49077 129.4044 130.31805 132.11639 133.03003 133.7659 135.56424 136.47787 138.27621 139.36349 140.28127 142.07547 143.69604 145.49438 146.40802 148.20636 150.00056 150.73643 152.53477 154.15535 155.06898 156.68956"
         y="214.56737"
         sodipodi:role="line"
         id="tspan11517"> Provides and uses refers to interface objects.</tspan><tspan
         style="font-variant:normal;font-weight:normal;font-stretch:normal;font-size:3.175px;font-family:Arial;writing-mode:lr-tb;fill:#231f20;fill-opacity:1;fill-rule:nonzero;stroke:none;stroke-width:0.352777"
         x="44.316063 46.639435 48.437775 51.112549 52.910889 55.234261 57.0326 57.946239 58.859879 59.947151 60.864925 62.65913 64.457466 65.193344 66.813911 67.727554 68.463425 70.261765 71.175407 73.498779 75.297119 77.971893 79.770233 81.568573 83.362778 85.161118 86.959457 87.873093 88.786736 91.110107 92.023743 92.941521 95.264893 97.059097 98.857437 100.65578 102.27635 103.01222 103.92586 105.7242 106.81147"
         y="225.73288"
         sodipodi:role="line"
         id="tspan11518">HomeDef - only in ComponentIR::Repository</tspan><tspan
         style="font-variant:normal;font-weight:normal;font-stretch:normal;font-size:3.175px;font-family:Arial;writing-mode:lr-tb;fill:#231f20;fill-opacity:1;fill-rule:nonzero;stroke:none;stroke-width:0.352777"
         x="47.949951 49.921921 51.716129 53.3367 54.25034 56.048679 57.135952 58.756527 61.079899 62.878239"
         y="232.51341"
         sodipodi:role="line"
         id="tspan11519">FactoryDef</tspan><tspan
         style="font-variant:normal;font-weight:normal;font-stretch:normal;font-size:3.175px;font-family:Arial;writing-mode:lr-tb;fill:#231f20;fill-opacity:1;fill-rule:nonzero;stroke:none;stroke-width:0.352777"
         x="47.949951 49.921921 50.657795 52.452 54.25034 56.048679 57.135952 59.459324 61.257664"
         y="235.6884"
         sodipodi:role="line"
         id="tspan11520">FinderDef</tspan><tspan
         style="font-variant:normal;font-weight:normal;font-stretch:normal;font-size:3.175px;font-family:Arial;writing-mode:lr-tb;fill:#231f20;fill-opacity:1;fill-rule:nonzero;stroke:none;stroke-width:0.352777"
         x="93.656723 95.806458 96.7201 99.047607 100.84181 103.52071 105.31493 107.64243 109.43664 110.35027 111.26805 112.18169 114.50506 115.4187 117.21704 119.01538 119.75125 121.54546 123.16603 124.07967 124.99331 126.08472 127.88306 129.67726 130.76866 132.56287 134.18344 135.98178 137.77599 138.69377 140.3102 141.22385 142.14162 143.93582 145.5564 146.47003 148.26837 149.35565 150.97621 151.88986 153.6882 155.48654 157.28075 158.19438 159.11215 159.84802 161.64223 163.44057 165.23891 166.32619"
         y="230.44267"
         sodipodi:role="line"
         id="tspan11521">A HomeDef IR object represents factory and finder </tspan><tspan
         style="font-variant:normal;font-weight:normal;font-stretch:normal;font-size:3.175px;font-family:Arial;writing-mode:lr-tb;fill:#231f20;fill-opacity:1;fill-rule:nonzero;stroke:none;stroke-width:0.352777"
         x="93.838623 95.636963 97.431168 98.344803 99.084816 100.87902 102.67736 104.4757 105.38934 107.71271 108.44859 109.36222 111.16056 111.89643 113.69477 114.60841 116.40675 117.49403 118.40766 119.14767 120.94188 122.74022 124.53856 125.62583 126.3617 127.27534 129.07368 130.87202 131.78566 133.584 135.20044 136.11821 137.91241 139.71075 142.38553 144.18387 145.0975"
         y="233.61768"
         sodipodi:role="line"
         id="tspan11522">defined within or inherited by home. </tspan><tspan
         style="font-variant:normal;font-weight:normal;font-stretch:normal;font-size:3.175px;font-family:Arial;writing-mode:lr-tb;fill:#231f20;fill-opacity:1;fill-rule:nonzero;stroke:none;stroke-width:0.352777"
         x="93.838623 95.810593 97.604797 99.225372 100.13902 101.93736 103.02462 104.6452 105.55884 107.35718 109.15552 110.94972 111.86749 112.78114 113.51701 115.31535 117.10955 118.90789 119.99516 120.91294 122.00021 123.79855 124.71219 126.51053 127.5978 128.51144 129.42508 131.22342 132.13705 133.93539 135.55597 137.17241 138.97075 140.76909 141.68272 142.41859 144.21693 146.01115 146.92892 148.72313 150.52147 151.25734 153.05568 154.67212 155.58989 157.20633"
         y="236.79266"
         sodipodi:role="line"
         id="tspan11523">Factory and finder refer to exception objects.</tspan><tspan
         style="font-variant:normal;font-weight:normal;font-stretch:normal;font-size:3.175px;font-family:Arial;writing-mode:lr-tb;fill:#231f20;fill-opacity:1;fill-rule:nonzero;stroke:none;stroke-width:0.352777"
         x="38.813557 40.963295 42.58387 44.38221 46.176414 47.094189 49.417561 51.211765 52.129539 53.043179 54.130451 55.04409 56.84243 58.64077 59.376644 60.997215 61.910854 62.646729 64.445068 65.358704 67.682076 69.480415 72.15519 73.953529 75.751869 77.546074 79.344414 81.142754 82.056396 82.970032 85.293404 86.207047 87.124817 89.448189 91.242401 93.040741 94.839081 96.455513 97.195526 98.109161 99.903366 100.99477"
         y="91.688194"
         sodipodi:role="line"
         id="tspan11524">EventDef - only in ComponentIR::Repository</tspan><tspan
         style="font-variant:normal;font-weight:normal;font-stretch:normal;font-size:3.175px;font-family:Arial;writing-mode:lr-tb;fill:#231f20;fill-opacity:1;fill-rule:nonzero;stroke:none;stroke-width:0.352777"
         x="37.916454 40.239826 42.038166 44.71294 46.51128 48.305485 50.103825 51.902164 53.700504 54.614143 56.937515 58.735855 59.649494 60.563133 61.650406 62.56818 64.362381 66.160721 66.896599 68.517166 69.430809 70.166679 71.965019 72.878662 75.202034 77.000374 79.675148 81.473488 83.271828 85.066032 86.864372 88.662712 89.576347 90.48999 92.813362 93.726997 94.644775 96.968147 98.766487 100.56069 102.35903 103.97961 104.71548 105.62911 107.42745 108.51472"
         y="103.61223"
         sodipodi:role="line"
         id="tspan11525">ComponentDef - only in ComponentIR::Repository</tspan><tspan
         style="font-variant:normal;font-weight:normal;font-stretch:normal;font-size:3.175px;font-family:Arial;writing-mode:lr-tb;fill:#231f20;fill-opacity:1;fill-rule:nonzero;stroke:none;stroke-width:0.352777"
         x="37.916454 40.239826 42.038166 44.71294 46.51128 48.834652 50.632992 51.546631 52.46027 53.547543 54.465313 56.259521 58.057861 58.793732 60.414307 61.327946 62.063816 63.862156 64.775795 67.099167 68.897507 71.572281 73.370621 75.168961 76.963165 78.761505 80.559845 81.473488 82.387123 84.710495 85.628273 86.541908 88.86528 90.66362 92.457825 94.256165 95.87674 96.61261 97.526253 99.324593 100.41187"
         y="107.507"
         sodipodi:role="line"
         id="tspan11526">HomeDef - only in ComponentIR::Repository</tspan></text>
  </g>
</svg>
