<?xml version="1.0" encoding="UTF-8" standalone="no"?>
<!-- Created with Inkscape (http://www.inkscape.org/) -->

<svg
   width="155.575mm"
   height="114.28941mm"
   viewBox="0 0 155.575 114.28941"
   version="1.1"
   id="svg1"
   inkscape:version="1.3.2 (091e20e, 2023-11-25, custom)"
   sodipodi:docname="figure6-7.svg"
   xmlns:inkscape="http://www.inkscape.org/namespaces/inkscape"
   xmlns:sodipodi="http://sodipodi.sourceforge.net/DTD/sodipodi-0.dtd"
   xmlns="http://www.w3.org/2000/svg"
   xmlns:svg="http://www.w3.org/2000/svg">
  <sodipodi:namedview
     id="namedview1"
     pagecolor="#ffffff"
     bordercolor="#666666"
     borderopacity="1.0"
     inkscape:showpageshadow="2"
     inkscape:pageopacity="0.0"
     inkscape:pagecheckerboard="0"
     inkscape:deskcolor="#d1d1d1"
     inkscape:document-units="mm"
     inkscape:zoom="0.74920735"
     inkscape:cx="294.97842"
     inkscape:cy="216.8959"
     inkscape:window-width="1920"
     inkscape:window-height="1017"
     inkscape:window-x="1072"
     inkscape:window-y="-8"
     inkscape:window-maximized="1"
     inkscape:current-layer="layer1" />
  <defs
     id="defs1" />
  <g
     inkscape:label="Layer 1"
     inkscape:groupmode="layer"
     id="layer1"
     transform="translate(-26.987394,-91.281249)">
    <path
       id="path1753"
       d="M 26.987394,205.57066 H 182.56239 V 91.281249 H 26.987394 Z"
       style="fill:#ffffff;fill-opacity:1;fill-rule:nonzero;stroke:none;stroke-width:0.352777" />
    <path
       id="path1754"
       d="m 36.512393,196.28555 v -85.725 c 0,-3.50696 2.842948,-6.35 6.35,-6.35 H 169.86239 c 3.50705,0 6.35,2.84304 6.35,6.35 v 85.725 c 0,3.50696 -2.84295,6.35 -6.35,6.35 H 42.862393 c -3.507052,0 -6.35,-2.84304 -6.35,-6.35 z"
       style="fill:none;stroke:#918f8f;stroke-width:1.06892;stroke-linecap:butt;stroke-linejoin:miter;stroke-miterlimit:3.86;stroke-dasharray:none;stroke-opacity:1" />
    <path
       id="path1755"
       d="m 40.720856,132.65855 h -0.35269"
       style="fill:none;stroke:#656263;stroke-width:2.12725;stroke-linecap:square;stroke-linejoin:miter;stroke-miterlimit:3.86;stroke-dasharray:none;stroke-opacity:1" />
    <path
       id="path1756"
       d="M 172.05314,132.90903 40.72112,132.65855"
       style="fill:none;stroke:#656263;stroke-width:2.12725;stroke-linecap:square;stroke-linejoin:miter;stroke-miterlimit:3.86;stroke-dasharray:0.6985, 4.19134;stroke-dashoffset:0.6985;stroke-opacity:1" />
    <path
       id="path1757"
       d="m 172.40583,132.90902 h -0.35269"
       style="fill:none;stroke:#656263;stroke-width:2.12725;stroke-linecap:square;stroke-linejoin:miter;stroke-miterlimit:3.86;stroke-dasharray:none;stroke-opacity:1" />
    <text
       id="text1757"
       xml:space="preserve"
       x="75.801048"
       y="99.645607"
       style="font-size:4.23333px;stroke-width:0.352777"><tspan
         style="font-variant:normal;font-weight:700;font-stretch:normal;font-size:5.29167px;font-family:Arial;writing-mode:lr-tb;fill:#231f20;fill-opacity:1;fill-rule:nonzero;stroke:none;stroke-width:0.352777"
         x="75.801048 79.917595 83.151505 84.622215 87.564674 90.507126 92.269295 93.740005 95.210716 99.915337 103.14822 104.61996 107.56139 112.26601 115.20847 118.44134 120.20351 123.14597 124.90813 126.37884 129.61172"
         y="99.645607"
         sodipodi:role="line"
         id="tspan1757">Object Implementation</tspan></text>
    <path
       id="path1758"
       d="m 105.28289,110.83395 c -6.677287,0 -12.096747,1.97556 -12.096747,4.40972 0,2.43417 5.41946,4.40972 12.096747,4.40972 6.67729,0 12.09675,-1.97555 12.09675,-4.40972 0,-2.43416 -5.41946,-4.40972 -12.09675,-4.40972 z"
       style="fill:none;stroke:#231f20;stroke-width:0.53975;stroke-linecap:butt;stroke-linejoin:miter;stroke-miterlimit:3.86;stroke-dasharray:none;stroke-opacity:1" />
    <path
       id="path1759"
       d="m 104.52618,149.9429 c -6.120337,0 -11.087889,2.14453 -11.087889,4.78719 0,2.64266 4.967552,4.78719 11.087889,4.78719 6.12035,0 11.0879,-2.14453 11.0879,-4.78719 0,-2.64266 -4.96755,-4.78719 -11.0879,-4.78719 z"
       style="fill:none;stroke:#393536;stroke-width:1.06892;stroke-linecap:butt;stroke-linejoin:miter;stroke-miterlimit:3.86;stroke-dasharray:none;stroke-opacity:1" />
    <path
       id="path1760"
       d="m 104.64789,125.74763 h -1.05833 c 0,0.5842 0.47413,1.05833 1.05833,1.05833 0.5842,0 1.05834,-0.47413 1.05834,-1.05833 0,-0.5842 -0.47414,-1.05833 -1.05834,-1.05833 -0.5842,0 -1.05833,0.47413 -1.05833,1.05833"
       style="fill:#393536;fill-opacity:1;fill-rule:nonzero;stroke:none;stroke-width:0.352777" />
    <path
       id="path1761"
       d="m 106.99025,125.57124 -2.34236,-4.05342 -2.33891,4.05342 h 2.33891 z"
       style="fill:none;stroke:#393536;stroke-width:0.34925;stroke-linecap:butt;stroke-linejoin:miter;stroke-miterlimit:3.86;stroke-dasharray:none;stroke-opacity:1" />
    <path
       id="path1762"
       d="m 106.99025,125.57124 -2.34236,-4.05342 -2.33891,4.05342 h 2.33891"
       style="fill:#393536;fill-opacity:1;fill-rule:evenodd;stroke:none;stroke-width:0.352777" />
    <path
       id="path1763"
       d="M 104.64789,149.44019 V 125.74763"
       style="fill:none;stroke:#393536;stroke-width:2.12725;stroke-linecap:square;stroke-linejoin:miter;stroke-miterlimit:3.86;stroke-dasharray:none;stroke-opacity:1" />
    <text
       id="text1763"
       xml:space="preserve"
       x="117.97935"
       y="156.09004"
       style="font-size:4.23333px;stroke-width:0.352777"><tspan
         style="font-variant:normal;font-weight:700;font-stretch:normal;font-size:3.88056px;font-family:Arial;writing-mode:lr-tb;fill:#231f20;fill-opacity:1;fill-rule:nonzero;stroke:none;stroke-width:0.352777"
         x="117.97935 120.99829 123.80019 126.60208 127.68108 130.052 132.42291 133.50192 135.65889 137.81691 139.10881 140.18782 141.69676 143.85478 145.14668 147.30469 148.81364 150.97165 153.34258 155.50058 157.65755"
         y="156.09004"
         sodipodi:role="line"
         id="tspan1763">ORB object references</tspan></text>
    <path
       id="path1764"
       d="m 55.512916,107.8618 h 34.268833 v 16.12548 H 55.512916 Z"
       style="fill:none;stroke:#231f20;stroke-width:0.53975;stroke-linecap:butt;stroke-linejoin:miter;stroke-miterlimit:3.86;stroke-dasharray:none;stroke-opacity:1" />
    <text
       id="text1764"
       xml:space="preserve"
       x="59.040318"
       y="114.15888"
       style="font-size:4.23333px;stroke-width:0.352777"><tspan
         style="font-variant:normal;font-weight:700;font-stretch:normal;font-size:4.23333px;font-family:Arial;writing-mode:lr-tb;fill:#231f20;fill-opacity:1;fill-rule:nonzero;stroke:none;stroke-width:0.352777"
         x="59.040318 62.566715 64.921097 66.330826 68.916718 71.503639 74.090561 76.443909 77.621094 79.03083 81.616714"
         y="114.15888"
         sodipodi:role="line"
         id="tspan1764">Methods for</tspan><tspan
         style="font-variant:normal;font-weight:700;font-stretch:normal;font-size:4.23333px;font-family:Arial;writing-mode:lr-tb;fill:#231f20;fill-opacity:1;fill-rule:nonzero;stroke:none;stroke-width:0.352777"
         x="59.040318 60.217506 62.804428 64.214157 66.567505 68.213913 69.62365 71.978027 74.331375 76.684715 77.697578"
         y="118.77321"
         sodipodi:role="line"
         id="tspan1765">Interface A</tspan></text>
    <path
       id="path1765"
       d="m 52.486083,173.42555 h 36.036249 v 21.16667 H 52.486083 Z"
       style="fill:none;stroke:#231f20;stroke-width:0.53975;stroke-linecap:butt;stroke-linejoin:miter;stroke-miterlimit:3.86;stroke-dasharray:none;stroke-opacity:1" />
    <text
       id="text1765"
       xml:space="preserve"
       x="90.787216"
       y="165.31166"
       style="font-size:4.23333px;stroke-width:0.352777"><tspan
         style="font-variant:normal;font-weight:700;font-stretch:normal;font-size:3.88056px;font-family:Arial;writing-mode:lr-tb;fill:#231f20;fill-opacity:1;fill-rule:nonzero;stroke:none;stroke-width:0.352777"
         x="90.787216 93.158127 94.237137 96.608047 98.118034 100.27501 101.785 103.94197 105.02097 107.82287 110.19378 112.5647 113.85661 114.93562 117.30653 119.46453"
         y="165.31166"
         sodipodi:role="line"
         id="tspan1766">Library Routines</tspan></text>
    <path
       id="path1766"
       d="m 120.82637,173.42555 h 36.03254 v 21.16667 h -36.03254 z"
       style="fill:none;stroke:#231f20;stroke-width:0.53975;stroke-linecap:butt;stroke-linejoin:miter;stroke-miterlimit:3.86;stroke-dasharray:none;stroke-opacity:1" />
    <text
       id="text1766"
       xml:space="preserve"
       x="124.0503"
       y="115.92278"
       style="font-size:4.23333px;stroke-width:0.352777"><tspan
         style="font-variant:normal;font-weight:700;font-stretch:normal;font-size:3.88056px;font-family:Arial;writing-mode:lr-tb;fill:#231f20;fill-opacity:1;fill-rule:nonzero;stroke:none;stroke-width:0.352777"
         x="124.0503 127.06924 129.44119 130.51915 132.67717 134.83414 136.12709 137.20609 139.577 141.73398 143.02692"
         y="115.92278"
         sodipodi:role="line"
         id="tspan1767">Object data</tspan></text>
    <text
       id="text1767"
       xml:space="preserve"
       x="58.535954"
       y="180.68571"
       style="font-size:4.23333px;stroke-width:0.352777"><tspan
         style="font-variant:normal;font-weight:700;font-stretch:normal;font-size:4.23333px;font-family:Arial;writing-mode:lr-tb;fill:#231f20;fill-opacity:1;fill-rule:nonzero;stroke:none;stroke-width:0.352777"
         x="58.535954 61.359554 63.713932 66.067276 67.244469 69.597809 71.007545 73.594467 76.180359 77.357544 78.767281 81.354202"
         y="180.68571"
         sodipodi:role="line"
         id="tspan1768">Skeleton for</tspan><tspan
         style="font-variant:normal;font-weight:700;font-stretch:normal;font-size:4.23333px;font-family:Arial;writing-mode:lr-tb;fill:#231f20;fill-opacity:1;fill-rule:nonzero;stroke:none;stroke-width:0.352777"
         x="60.04594 61.223129 63.810051 65.219788 67.573128 69.219543 70.629272 72.98365 75.336998 77.691376 78.707336"
         y="186.97942"
         sodipodi:role="line"
         id="tspan1769">Interface A</tspan><tspan
         style="font-variant:normal;font-weight:700;font-stretch:normal;font-size:4.23333px;font-family:Arial;writing-mode:lr-tb;fill:#231f20;fill-opacity:1;fill-rule:nonzero;stroke:none;stroke-width:0.352777"
         x="125.31017 128.60403 131.19095 132.36711 134.72148 137.07483 138.48456 139.66176 142.01509 144.60202 146.95537 149.54228 150.95201 153.30536"
         y="180.93633"
         sodipodi:role="line"
         id="tspan1770">Object adapter</tspan><tspan
         style="font-variant:normal;font-weight:700;font-stretch:normal;font-size:4.23333px;font-family:Arial;writing-mode:lr-tb;fill:#231f20;fill-opacity:1;fill-rule:nonzero;stroke:none;stroke-width:0.352777"
         x="130.85609 132.5025 135.08942 137.67635 139.08607 140.26224 142.84915 145.2025"
         y="186.22459"
         sodipodi:role="line"
         id="tspan1771">routines</tspan></text>
    <path
       id="path1771"
       d="m 68.131689,126.75305 -1.418167,-1.32045 c -0.73025,0.78387 -0.687652,2.01225 0.09525,2.74108 0.782902,0.72884 2.010834,0.68404 2.741084,-0.10018 0.73025,-0.78423 0.687652,-2.01225 -0.09525,-2.74109 -0.782903,-0.72884 -2.010834,-0.68404 -2.741084,0.10019"
       style="fill:#231f20;fill-opacity:1;fill-rule:nonzero;stroke:none;stroke-width:0.352777" />
    <path
       id="path1772"
       d="m 70.932833,129.12019 1.643856,-7.14023 -7.006167,2.14489 2.681288,2.49767 z"
       style="fill:none;stroke:#231f20;stroke-width:0.34925;stroke-linecap:butt;stroke-linejoin:miter;stroke-miterlimit:3.86;stroke-dasharray:none;stroke-opacity:1" />
    <path
       id="path1773"
       d="m 70.932833,129.12019 1.643856,-7.14023 -7.006167,2.14489 2.681288,2.49767"
       style="fill:#231f20;fill-opacity:1;fill-rule:evenodd;stroke:none;stroke-width:0.352777" />
    <path
       id="path1774"
       d="m 58.158749,171.66519 c -0.0026,-18.88772 2.561167,-36.95347 9.97294,-44.91214"
       style="fill:none;stroke:#231f20;stroke-width:3.88408;stroke-linecap:square;stroke-linejoin:miter;stroke-miterlimit:3.86;stroke-dasharray:none;stroke-opacity:1" />
    <text
       id="text1774"
       xml:space="preserve"
       transform="rotate(-84.29012)"
       x="-160.84081"
       y="75.828468"
       style="font-size:4.23333px;stroke-width:0.352777"><tspan
         style="font-variant:normal;font-weight:700;font-stretch:normal;font-size:4.23333px;font-family:Arial;writing-mode:lr-tb;fill:#ffffff;fill-opacity:1;fill-rule:nonzero;stroke:none;stroke-width:0.352777"
         x="-160.84081 -157.78433 -155.1978 -153.78807 -151.43434 -149.0806 -147.90373 -146.72687 -145.55 -144.14027"
         y="75.828468"
         sodipodi:role="line"
         id="tspan1774">Up-call to</tspan></text>
    <text
       id="text1775"
       xml:space="preserve"
       transform="rotate(-71.889979)"
       x="-120.93442"
       y="104.48591"
       style="font-size:4.23333px;stroke-width:0.352777"><tspan
         style="font-variant:normal;font-weight:700;font-stretch:normal;font-size:4.23333px;font-family:Arial;writing-mode:lr-tb;fill:#ffffff;fill-opacity:1;fill-rule:nonzero;stroke:none;stroke-width:0.352777"
         x="-120.93442 -117.40827 -115.05441 -113.64468 -111.05827 -108.47161"
         y="104.48591"
         sodipodi:role="line"
         id="tspan1775">Method</tspan></text>
    <path
       id="path1775"
       d="m 90.335787,173.67955 h 28.726603 v 21.21606 H 90.335787 Z"
       style="fill:none;stroke:#231f20;stroke-width:0.53975;stroke-linecap:butt;stroke-linejoin:miter;stroke-miterlimit:3.86;stroke-dasharray:none;stroke-opacity:1" />
    <text
       id="text1776"
       xml:space="preserve"
       x="95.577621"
       y="180.68571"
       style="font-size:4.23333px;stroke-width:0.352777"><tspan
         style="font-variant:normal;font-weight:700;font-stretch:normal;font-size:4.23333px;font-family:Arial;writing-mode:lr-tb;fill:#231f20;fill-opacity:1;fill-rule:nonzero;stroke:none;stroke-width:0.352777"
         x="95.577621 98.634796 100.98814 103.57507 105.92841 109.69149 110.86868"
         y="180.68571"
         sodipodi:role="line"
         id="tspan1776">Dynamic</tspan><tspan
         style="font-variant:normal;font-weight:700;font-stretch:normal;font-size:4.23333px;font-family:Arial;writing-mode:lr-tb;fill:#231f20;fill-opacity:1;fill-rule:nonzero;stroke:none;stroke-width:0.352777"
         x="95.577621 98.401222 100.7556 103.10894 104.28613 106.63948 108.04921 110.63613"
         y="186.97942"
         sodipodi:role="line"
         id="tspan1777">Skeleton</tspan></text>
    <path
       id="path1777"
       d="m 79.61831,124.06135 -0.589492,1.84785 c 1.018381,0.32491 2.108994,-0.23953 2.434167,-1.25941 0.325702,-1.01988 -0.237067,-2.11138 -1.255184,-2.43629 -1.018381,-0.3249 -2.108993,0.23954 -2.434166,1.25942 -0.325702,1.01988 0.237066,2.11138 1.255183,2.43628"
       style="fill:#231f20;fill-opacity:1;fill-rule:nonzero;stroke:none;stroke-width:0.352777" />
    <path
       id="path1778"
       d="m 80.563666,120.51594 -7.157773,1.5628 4.931833,5.41867 1.11469,-3.48897 z"
       style="fill:none;stroke:#231f20;stroke-width:0.34925;stroke-linecap:butt;stroke-linejoin:miter;stroke-miterlimit:3.86;stroke-dasharray:none;stroke-opacity:1" />
    <path
       id="path1779"
       d="m 80.563666,120.51594 -7.157773,1.5628 4.931833,5.41867 1.11469,-3.48897"
       style="fill:#231f20;fill-opacity:1;fill-rule:evenodd;stroke:none;stroke-width:0.352777" />
    <path
       id="path1780"
       d="m 79.61831,124.06135 c 10.678583,3.40431 16.210226,25.13189 16.210226,47.60031"
       style="fill:none;stroke:#231f20;stroke-width:3.88408;stroke-linecap:square;stroke-linejoin:miter;stroke-miterlimit:3.86;stroke-dasharray:none;stroke-opacity:1" />
    <text
       id="text1780"
       xml:space="preserve"
       x="93.814423"
       y="165.31166"
       style="font-size:4.23333px;stroke-width:0.352777"><tspan
         style="font-variant:normal;font-weight:700;font-stretch:normal;font-size:3.88056px;font-family:Arial;writing-mode:lr-tb;fill:#ffffff;fill-opacity:1;fill-rule:nonzero;stroke:none;stroke-width:0.352777"
         x="93.814423 96.185333"
         y="165.31166"
         sodipodi:role="line"
         id="tspan1780">br</tspan></text>
  </g>
</svg>
